Mertz-Heavy.ufo
<glyph name="exclam" format="1">
  <advance width="629"></advance>
  <unicode hex="0021"></unicode>
  <outline>
    <contour>
      <point x="300" y="439" type="line" smooth="yes"></point>
      <point x="271" y="439"></point>
      <point x="255" y="454"></point>
      <point x="251" y="483" type="curve" smooth="yes"></point>
      <point x="161" y="1197" type="line"></point>
      <point x="161" y="1205" type="line" smooth="yes"></point>
      <point x="161" y="1228"></point>
      <point x="175" y="1241"></point>
      <point x="200" y="1241" type="curve" smooth="yes"></point>
      <point x="420" y="1241" type="line" smooth="yes"></point>
      <point x="445" y="1241"></point>
      <point x="459" y="1228"></point>
      <point x="459" y="1205" type="curve" smooth="yes"></point>
      <point x="459" y="1197" type="line"></point>
      <point x="369" y="483" type="line" smooth="yes"></point>
      <point x="365" y="454"></point>
      <point x="349" y="439"></point>
      <point x="320" y="439" type="curve" smooth="yes"></point>
    </contour>
    <contour>
      <point x="314" y="-16" type="curve" smooth="yes"></point>
      <point x="208" y="-16"></point>
      <point x="145" y="65"></point>
      <point x="145" y="149" type="curve" smooth="yes"></point>
      <point x="145" y="230"></point>
      <point x="207" y="314"></point>
      <point x="314" y="314" type="curve" smooth="yes"></point>
      <point x="421" y="314"></point>
      <point x="482" y="229"></point>
      <point x="482" y="149" type="curve" smooth="yes"></point>
      <point x="482" y="66"></point>
      <point x="420" y="-16"></point>
    </contour>
  </outline>
</glyph>
<glyph name="quotedbl" format="1">
  <advance width="833"></advance>
  <unicode hex="0022"></unicode>
  <outline>
    <contour>
      <point x="195" y="599" type="line" smooth="yes"></point>
      <point x="166" y="599"></point>
      <point x="155" y="614"></point>
      <point x="155" y="643" type="curve" smooth="yes"></point>
      <point x="155" y="1196" type="line" smooth="yes"></point>
      <point x="155" y="1225"></point>
      <point x="167" y="1240"></point>
      <point x="194" y="1240" type="curve" smooth="yes"></point>
      <point x="368" y="1240" type="line" smooth="yes"></point>
      <point x="391" y="1240"></point>
      <point x="408" y="1228"></point>
      <point x="408" y="1207" type="curve" smooth="yes"></point>
      <point x="408" y="1203"></point>
      <point x="408" y="1200"></point>
      <point x="407" y="1196" type="curve" smooth="yes"></point>
      <point x="273" y="643" type="line" smooth="yes"></point>
      <point x="265" y="609"></point>
      <point x="257" y="599"></point>
      <point x="228" y="599" type="curve" smooth="yes"></point>
    </contour>
    <contour>
      <point x="538" y="599" type="line" smooth="yes"></point>
      <point x="509" y="599"></point>
      <point x="498" y="614"></point>
      <point x="498" y="643" type="curve" smooth="yes"></point>
      <point x="498" y="1196" type="line" smooth="yes"></point>
      <point x="498" y="1225"></point>
      <point x="510" y="1240"></point>
      <point x="537" y="1240" type="curve" smooth="yes"></point>
      <point x="711" y="1240" type="line" smooth="yes"></point>
      <point x="734" y="1240"></point>
      <point x="751" y="1228"></point>
      <point x="751" y="1207" type="curve" smooth="yes"></point>
      <point x="751" y="1203"></point>
      <point x="751" y="1200"></point>
      <point x="750" y="1196" type="curve" smooth="yes"></point>
      <point x="616" y="643" type="line" smooth="yes"></point>
      <point x="608" y="609"></point>
      <point x="600" y="599"></point>
      <point x="571" y="599" type="curve" smooth="yes"></point>
    </contour>
  </outline>
</glyph>
<glyph name="parenleft" format="1">
  <advance width="697"></advance>
  <unicode hex="0028"></unicode>
  <outline>
    <contour>
      <point x="292" y="-136" type="line"></point>
      <point x="198" y="68"></point>
      <point x="150" y="348"></point>
      <point x="150" y="607" type="curve" smooth="yes"></point>
      <point x="150" y="865"></point>
      <point x="197" y="1143"></point>
      <point x="290" y="1346" type="curve"></point>
      <point x="584" y="1346" type="line"></point>
      <point x="489" y="1125"></point>
      <point x="441" y="856"></point>
      <point x="441" y="607" type="curve" smooth="yes"></point>
      <point x="441" y="357"></point>
      <point x="490" y="86"></point>
      <point x="586" y="-136" type="curve"></point>
    </contour>
  </outline>
</glyph>
<glyph name="parenright" format="1">
  <advance width="697"></advance>
  <unicode hex="0029"></unicode>
  <outline>
    <contour>
      <point x="111" y="-136" type="line"></point>
      <point x="206" y="85"></point>
      <point x="254" y="354"></point>
      <point x="254" y="603" type="curve" smooth="yes"></point>
      <point x="254" y="853"></point>
      <point x="205" y="1124"></point>
      <point x="109" y="1346" type="curve"></point>
      <point x="403" y="1346" type="line"></point>
      <point x="497" y="1142"></point>
      <point x="545" y="862"></point>
      <point x="545" y="603" type="curve" smooth="yes"></point>
      <point x="545" y="345"></point>
      <point x="498" y="67"></point>
      <point x="405" y="-136" type="curve"></point>
    </contour>
  </outline>
</glyph>
<glyph name="plus" format="1">
  <advance width="935"></advance>
  <unicode hex="002B"></unicode>
  <outline>
    <contour>
      <point x="409" y="218" type="line" smooth="yes"></point>
      <point x="381" y="218"></point>
      <point x="365" y="234"></point>
      <point x="365" y="262" type="curve" smooth="yes"></point>
      <point x="365" y="464" type="line"></point>
      <point x="163" y="464" type="line" smooth="yes"></point>
      <point x="135" y="464"></point>
      <point x="119" y="480"></point>
      <point x="119" y="508" type="curve" smooth="yes"></point>
      <point x="119" y="615" type="line" smooth="yes"></point>
      <point x="119" y="643"></point>
      <point x="135" y="659"></point>
      <point x="163" y="659" type="curve" smooth="yes"></point>
      <point x="365" y="659" type="line"></point>
      <point x="365" y="861" type="line" smooth="yes"></point>
      <point x="365" y="889"></point>
      <point x="381" y="905"></point>
      <point x="409" y="905" type="curve" smooth="yes"></point>
      <point x="516" y="905" type="line" smooth="yes"></point>
      <point x="544" y="905"></point>
      <point x="560" y="889"></point>
      <point x="560" y="861" type="curve" smooth="yes"></point>
      <point x="560" y="659" type="line"></point>
      <point x="762" y="659" type="line" smooth="yes"></point>
      <point x="790" y="659"></point>
      <point x="806" y="643"></point>
      <point x="806" y="615" type="curve" smooth="yes"></point>
      <point x="806" y="508" type="line" smooth="yes"></point>
      <point x="806" y="480"></point>
      <point x="790" y="464"></point>
      <point x="762" y="464" type="curve" smooth="yes"></point>
      <point x="560" y="464" type="line"></point>
      <point x="560" y="262" type="line" smooth="yes"></point>
      <point x="560" y="234"></point>
      <point x="544" y="218"></point>
      <point x="516" y="218" type="curve" smooth="yes"></point>
    </contour>
  </outline>
</glyph>
<glyph name="hyphen" format="1">
  <advance width="935"></advance>
  <unicode hex="002D"></unicode>
  <outline>
    <contour>
      <point x="163" y="441" type="line" smooth="yes"></point>
      <point x="135" y="441"></point>
      <point x="119" y="457"></point>
      <point x="119" y="485" type="curve" smooth="yes"></point>
      <point x="119" y="645" type="line" smooth="yes"></point>
      <point x="119" y="673"></point>
      <point x="135" y="689"></point>
      <point x="163" y="689" type="curve" smooth="yes"></point>
      <point x="762" y="689" type="line" smooth="yes"></point>
      <point x="790" y="689"></point>
      <point x="806" y="673"></point>
      <point x="806" y="645" type="curve" smooth="yes"></point>
      <point x="806" y="485" type="line" smooth="yes"></point>
      <point x="806" y="457"></point>
      <point x="790" y="441"></point>
      <point x="762" y="441" type="curve" smooth="yes"></point>
    </contour>
  </outline>
</glyph>
<glyph name="period" format="1">
  <advance width="663"></advance>
  <unicode hex="002E"></unicode>
  <outline>
    <contour>
      <point x="329" y="-16" type="curve" smooth="yes"></point>
      <point x="223" y="-16"></point>
      <point x="160" y="65"></point>
      <point x="160" y="149" type="curve" smooth="yes"></point>
      <point x="160" y="230"></point>
      <point x="222" y="314"></point>
      <point x="329" y="314" type="curve" smooth="yes"></point>
      <point x="436" y="314"></point>
      <point x="497" y="229"></point>
      <point x="497" y="149" type="curve" smooth="yes"></point>
      <point x="497" y="66"></point>
      <point x="435" y="-16"></point>
    </contour>
  </outline>
</glyph>
<glyph name="slash" format="1">
  <advance width="850"></advance>
  <unicode hex="002F"></unicode>
  <outline>
    <contour>
      <point x="82" y="0" type="line" smooth="yes"></point>
      <point x="63" y="0"></point>
      <point x="52" y="9"></point>
      <point x="52" y="24" type="curve" smooth="yes"></point>
      <point x="52" y="29"></point>
      <point x="53" y="34"></point>
      <point x="56" y="40" type="curve" smooth="yes"></point>
      <point x="565" y="1201" type="line" smooth="yes"></point>
      <point x="577" y="1228"></point>
      <point x="597" y="1241"></point>
      <point x="627" y="1241" type="curve" smooth="yes"></point>
      <point x="802" y="1241" type="line" smooth="yes"></point>
      <point x="821" y="1241"></point>
      <point x="832" y="1232"></point>
      <point x="832" y="1217" type="curve" smooth="yes"></point>
      <point x="832" y="1212"></point>
      <point x="831" y="1207"></point>
      <point x="828" y="1201" type="curve" smooth="yes"></point>
      <point x="317" y="40" type="line" smooth="yes"></point>
      <point x="305" y="13"></point>
      <point x="285" y="0"></point>
      <point x="255" y="0" type="curve" smooth="yes"></point>
    </contour>
  </outline>
</glyph>
<glyph name="zero" format="1">
  <advance width="1088"></advance>
  <unicode hex="0030"></unicode>
  <outline>
    <contour>
      <point x="542" y="-33" type="curve" smooth="yes"></point>
      <point x="239" y="-33"></point>
      <point x="52" y="206"></point>
      <point x="52" y="623" type="curve" smooth="yes"></point>
      <point x="52" y="1062"></point>
      <point x="254" y="1276"></point>
      <point x="542" y="1276" type="curve" smooth="yes"></point>
      <point x="830" y="1276"></point>
      <point x="1030" y="1062"></point>
      <point x="1030" y="623" type="curve" smooth="yes"></point>
      <point x="1030" y="206"></point>
      <point x="845" y="-33"></point>
    </contour>
    <contour>
      <point x="542" y="206" type="curve" smooth="yes"></point>
      <point x="681" y="206"></point>
      <point x="737" y="398"></point>
      <point x="737" y="629" type="curve" smooth="yes"></point>
      <point x="737" y="855"></point>
      <point x="681" y="1037"></point>
      <point x="542" y="1037" type="curve" smooth="yes"></point>
      <point x="404" y="1037"></point>
      <point x="347" y="856"></point>
      <point x="347" y="629" type="curve" smooth="yes"></point>
      <point x="347" y="398"></point>
      <point x="404" y="206"></point>
    </contour>
  </outline>
</glyph>
<glyph name="one" format="1">
  <advance width="901"></advance>
  <unicode hex="0031"></unicode>
  <outline>
    <contour>
      <point x="489" y="0" type="line" smooth="yes"></point>
      <point x="461" y="0"></point>
      <point x="445" y="16"></point>
      <point x="445" y="44" type="curve" smooth="yes"></point>
      <point x="445" y="841" type="line"></point>
      <point x="388" y="811"></point>
      <point x="333" y="791"></point>
      <point x="238" y="762" type="curve" smooth="yes"></point>
      <point x="213" y="754"></point>
      <point x="196" y="767"></point>
      <point x="196" y="793" type="curve" smooth="yes"></point>
      <point x="196" y="976" type="line" smooth="yes"></point>
      <point x="196" y="1008"></point>
      <point x="208" y="1026"></point>
      <point x="237" y="1039" type="curve" smooth="yes"></point>
      <point x="347" y="1088"></point>
      <point x="613" y="1221"></point>
      <point x="714" y="1271" type="curve" smooth="yes"></point>
      <point x="720" y="1274"></point>
      <point x="726" y="1275"></point>
      <point x="731" y="1275" type="curve" smooth="yes"></point>
      <point x="744" y="1275"></point>
      <point x="753" y="1265"></point>
      <point x="753" y="1247" type="curve" smooth="yes"></point>
      <point x="753" y="44" type="line" smooth="yes"></point>
      <point x="753" y="16"></point>
      <point x="737" y="0"></point>
      <point x="709" y="0" type="curve" smooth="yes"></point>
    </contour>
  </outline>
</glyph>
<glyph name="two" format="1">
  <advance width="952"></advance>
  <unicode hex="0032"></unicode>
  <outline>
    <contour>
      <point x="57" y="0" type="line" smooth="yes"></point>
      <point x="41" y="0"></point>
      <point x="32" y="8"></point>
      <point x="32" y="19" type="curve" smooth="yes"></point>
      <point x="32" y="24"></point>
      <point x="34" y="30"></point>
      <point x="39" y="36" type="curve" smooth="yes"></point>
      <point x="492" y="672" type="line"></point>
      <point x="559" y="763"></point>
      <point x="588" y="839"></point>
      <point x="588" y="896" type="curve" smooth="yes"></point>
      <point x="588" y="974"></point>
      <point x="535" y="1017"></point>
      <point x="458" y="1017" type="curve" smooth="yes"></point>
      <point x="383" y="1017"></point>
      <point x="287" y="972"></point>
      <point x="234" y="945" type="curve" smooth="yes"></point>
      <point x="226" y="940"></point>
      <point x="217" y="938"></point>
      <point x="210" y="938" type="curve" smooth="yes"></point>
      <point x="196" y="938"></point>
      <point x="185" y="947"></point>
      <point x="178" y="964" type="curve" smooth="yes"></point>
      <point x="117" y="1101" type="line" smooth="yes"></point>
      <point x="114" y="1108"></point>
      <point x="113" y="1115"></point>
      <point x="113" y="1122" type="curve" smooth="yes"></point>
      <point x="113" y="1138"></point>
      <point x="121" y="1151"></point>
      <point x="136" y="1160" type="curve" smooth="yes"></point>
      <point x="203" y="1199"></point>
      <point x="353" y="1276"></point>
      <point x="493" y="1276" type="curve" smooth="yes"></point>
      <point x="752" y="1276"></point>
      <point x="890" y="1111"></point>
      <point x="890" y="898" type="curve" smooth="yes"></point>
      <point x="890" y="771"></point>
      <point x="814" y="652"></point>
      <point x="708" y="508" type="curve" smooth="yes"></point>
      <point x="521" y="253" type="line"></point>
      <point x="836" y="253" type="line" smooth="yes"></point>
      <point x="864" y="253"></point>
      <point x="880" y="237"></point>
      <point x="880" y="209" type="curve" smooth="yes"></point>
      <point x="880" y="44" type="line" smooth="yes"></point>
      <point x="880" y="16"></point>
      <point x="864" y="0"></point>
      <point x="836" y="0" type="curve" smooth="yes"></point>
    </contour>
  </outline>
</glyph>
<glyph name="three" format="1">
  <advance width="986"></advance>
  <unicode hex="0033"></unicode>
  <outline>
    <contour>
      <point x="493" y="-36" type="curve" smooth="yes"></point>
      <point x="329" y="-36"></point>
      <point x="177" y="10"></point>
      <point x="119" y="34" type="curve" smooth="yes"></point>
      <point x="98" y="43"></point>
      <point x="86" y="58"></point>
      <point x="86" y="78" type="curve" smooth="yes"></point>
      <point x="86" y="82"></point>
      <point x="87" y="86"></point>
      <point x="88" y="91" type="curve" smooth="yes"></point>
      <point x="126" y="238" type="line" smooth="yes"></point>
      <point x="131" y="258"></point>
      <point x="142" y="268"></point>
      <point x="158" y="268" type="curve" smooth="yes"></point>
      <point x="164" y="268"></point>
      <point x="170" y="267"></point>
      <point x="177" y="264" type="curve" smooth="yes"></point>
      <point x="250" y="234"></point>
      <point x="346" y="204"></point>
      <point x="434" y="204" type="curve" smooth="yes"></point>
      <point x="442" y="204"></point>
      <point x="449" y="205"></point>
      <point x="457" y="205" type="curve" smooth="yes"></point>
      <point x="547" y="211"></point>
      <point x="610" y="269"></point>
      <point x="610" y="371" type="curve" smooth="yes"></point>
      <point x="610" y="475"></point>
      <point x="517" y="565"></point>
      <point x="315" y="617" type="curve" smooth="yes"></point>
      <point x="291" y="623"></point>
      <point x="283" y="633"></point>
      <point x="283" y="649" type="curve" smooth="yes"></point>
      <point x="283" y="667"></point>
      <point x="291" y="677"></point>
      <point x="315" y="683" type="curve" smooth="yes"></point>
      <point x="522" y="733"></point>
      <point x="596" y="824"></point>
      <point x="596" y="901" type="curve" smooth="yes"></point>
      <point x="596" y="957"></point>
      <point x="559" y="1025"></point>
      <point x="437" y="1025" type="curve" smooth="yes"></point>
      <point x="376" y="1025"></point>
      <point x="285" y="1011"></point>
      <point x="176" y="969" type="curve" smooth="yes"></point>
      <point x="169" y="966"></point>
      <point x="162" y="965"></point>
      <point x="156" y="965" type="curve" smooth="yes"></point>
      <point x="140" y="965"></point>
      <point x="128" y="975"></point>
      <point x="121" y="995" type="curve" smooth="yes"></point>
      <point x="77" y="1129" type="line" smooth="yes"></point>
      <point x="75" y="1137"></point>
      <point x="73" y="1143"></point>
      <point x="73" y="1150" type="curve" smooth="yes"></point>
      <point x="73" y="1165"></point>
      <point x="80" y="1179"></point>
      <point x="97" y="1187" type="curve" smooth="yes"></point>
      <point x="209" y="1244"></point>
      <point x="374" y="1276"></point>
      <point x="494" y="1276" type="curve" smooth="yes"></point>
      <point x="722" y="1276"></point>
      <point x="881" y="1127"></point>
      <point x="881" y="929" type="curve" smooth="yes"></point>
      <point x="881" y="812"></point>
      <point x="821" y="710"></point>
      <point x="689" y="656" type="curve"></point>
      <point x="831" y="581"></point>
      <point x="918" y="490"></point>
      <point x="918" y="311" type="curve" smooth="yes"></point>
      <point x="918" y="118"></point>
      <point x="755" y="-36"></point>
    </contour>
  </outline>
</glyph>
<glyph name="four" format="1">
  <advance width="1003"></advance>
  <unicode hex="0034"></unicode>
  <outline>
    <contour>
      <point x="365" y="452" type="line"></point>
      <point x="548" y="452" type="line"></point>
      <point x="548" y="699" type="line"></point>
    </contour>
    <contour>
      <point x="592" y="0" type="line" smooth="yes"></point>
      <point x="564" y="0"></point>
      <point x="548" y="16"></point>
      <point x="548" y="44" type="curve" smooth="yes"></point>
      <point x="548" y="235" type="line"></point>
      <point x="23" y="235" type="line" smooth="yes"></point>
      <point x="9" y="235"></point>
      <point x="1" y="242"></point>
      <point x="1" y="251" type="curve" smooth="yes"></point>
      <point x="1" y="256"></point>
      <point x="3" y="262"></point>
      <point x="8" y="268" type="curve" smooth="yes"></point>
      <point x="801" y="1241" type="line" smooth="yes"></point>
      <point x="806" y="1247"></point>
      <point x="812" y="1250"></point>
      <point x="817" y="1250" type="curve" smooth="yes"></point>
      <point x="825" y="1250"></point>
      <point x="830" y="1243"></point>
      <point x="830" y="1230" type="curve" smooth="yes"></point>
      <point x="830" y="452" type="line"></point>
      <point x="961" y="452" type="line" smooth="yes"></point>
      <point x="986" y="452"></point>
      <point x="1000" y="441"></point>
      <point x="1000" y="414" type="curve" smooth="yes"></point>
      <point x="1000" y="408" type="line"></point>
      <point x="994" y="279" type="line"></point>
      <point x="991" y="246"></point>
      <point x="974" y="235"></point>
      <point x="945" y="235" type="curve" smooth="yes"></point>
      <point x="830" y="235" type="line"></point>
      <point x="830" y="44" type="line" smooth="yes"></point>
      <point x="830" y="16"></point>
      <point x="814" y="0"></point>
      <point x="786" y="0" type="curve" smooth="yes"></point>
    </contour>
  </outline>
</glyph>
<glyph name="five" format="1">
  <advance width="1003"></advance>
  <unicode hex="0035"></unicode>
  <outline>
    <contour>
      <point x="494" y="-36" type="curve" smooth="yes"></point>
      <point x="334" y="-36"></point>
      <point x="183" y="23"></point>
      <point x="104" y="62" type="curve" smooth="yes"></point>
      <point x="84" y="72"></point>
      <point x="73" y="88"></point>
      <point x="73" y="108" type="curve" smooth="yes"></point>
      <point x="73" y="113"></point>
      <point x="74" y="118"></point>
      <point x="75" y="123" type="curve" smooth="yes"></point>
      <point x="112" y="278" type="line" smooth="yes"></point>
      <point x="117" y="297"></point>
      <point x="127" y="307"></point>
      <point x="142" y="307" type="curve" smooth="yes"></point>
      <point x="148" y="307"></point>
      <point x="155" y="306"></point>
      <point x="162" y="302" type="curve" smooth="yes"></point>
      <point x="238" y="266"></point>
      <point x="355" y="228"></point>
      <point x="472" y="228" type="curve" smooth="yes"></point>
      <point x="591" y="228"></point>
      <point x="618" y="321"></point>
      <point x="619" y="364" type="curve"></point>
      <point x="619" y="477"></point>
      <point x="523" y="533"></point>
      <point x="437" y="533" type="curve" smooth="yes"></point>
      <point x="402" y="533"></point>
      <point x="369" y="526"></point>
      <point x="346" y="513" type="curve" smooth="yes"></point>
      <point x="317" y="496"></point>
      <point x="307" y="489"></point>
      <point x="294" y="489" type="curve" smooth="yes"></point>
      <point x="284" y="489"></point>
      <point x="271" y="494"></point>
      <point x="245" y="502" type="curve" smooth="yes"></point>
      <point x="165" y="527" type="line" smooth="yes"></point>
      <point x="137" y="536"></point>
      <point x="123" y="555"></point>
      <point x="124" y="584" type="curve" smooth="yes"></point>
      <point x="139" y="1198" type="line" smooth="yes"></point>
      <point x="140" y="1226"></point>
      <point x="156" y="1242"></point>
      <point x="184" y="1242" type="curve" smooth="yes"></point>
      <point x="804" y="1242" type="line" smooth="yes"></point>
      <point x="830" y="1242"></point>
      <point x="844" y="1228"></point>
      <point x="844" y="1203" type="curve" smooth="yes"></point>
      <point x="844" y="1198" type="line"></point>
      <point x="828" y="1051" type="line"></point>
      <point x="826" y="1022"></point>
      <point x="809" y="1007"></point>
      <point x="780" y="1007" type="curve" smooth="yes"></point>
      <point x="379" y="1007" type="line"></point>
      <point x="375" y="914"></point>
      <point x="376" y="839"></point>
      <point x="373" y="744" type="curve"></point>
      <point x="420" y="755"></point>
      <point x="483" y="771"></point>
      <point x="529" y="771" type="curve" smooth="yes"></point>
      <point x="754" y="771"></point>
      <point x="926" y="616"></point>
      <point x="926" y="338" type="curve" smooth="yes"></point>
      <point x="926" y="197"></point>
      <point x="852" y="-36"></point>
    </contour>
  </outline>
</glyph>
<glyph name="six" format="1">
  <advance width="1054"></advance>
  <unicode hex="0036"></unicode>
  <outline>
    <contour>
      <point x="522" y="559" type="curve" smooth="yes"></point>
      <point x="390" y="559"></point>
      <point x="322" y="466"></point>
      <point x="322" y="374" type="curve" smooth="yes"></point>
      <point x="322" y="285"></point>
      <point x="385" y="198"></point>
      <point x="516" y="198" type="curve" smooth="yes"></point>
      <point x="646" y="198"></point>
      <point x="712" y="290"></point>
      <point x="712" y="381" type="curve" smooth="yes"></point>
      <point x="712" y="471"></point>
      <point x="649" y="559"></point>
    </contour>
    <contour>
      <point x="846" y="1241" type="line" smooth="yes"></point>
      <point x="869" y="1241"></point>
      <point x="877" y="1224"></point>
      <point x="863" y="1207" type="curve" smooth="yes"></point>
      <point x="519" y="773" type="line"></point>
      <point x="539" y="776"></point>
      <point x="568" y="779"></point>
      <point x="588" y="779" type="curve" smooth="yes"></point>
      <point x="802" y="779"></point>
      <point x="993" y="622"></point>
      <point x="993" y="380" type="curve" smooth="yes"></point>
      <point x="993" y="119"></point>
      <point x="778" y="-35"></point>
      <point x="522" y="-35" type="curve" smooth="yes"></point>
      <point x="252" y="-35"></point>
      <point x="47" y="150"></point>
      <point x="47" y="382" type="curve" smooth="yes"></point>
      <point x="47" y="546"></point>
      <point x="111" y="662"></point>
      <point x="233" y="825" type="curve" smooth="yes"></point>
      <point x="294" y="907"></point>
      <point x="470" y="1123"></point>
      <point x="539" y="1207" type="curve" smooth="yes"></point>
      <point x="558" y="1230"></point>
      <point x="581" y="1241"></point>
      <point x="611" y="1241" type="curve" smooth="yes"></point>
    </contour>
  </outline>
</glyph>
<glyph name="seven" format="1">
  <advance width="867"></advance>
  <unicode hex="0037"></unicode>
  <outline>
    <contour>
      <point x="136" y="0" type="line" smooth="yes"></point>
      <point x="110" y="0"></point>
      <point x="99" y="17"></point>
      <point x="108" y="41" type="curve" smooth="yes"></point>
      <point x="460" y="972" type="line"></point>
      <point x="65" y="972" type="line" smooth="yes"></point>
      <point x="37" y="972"></point>
      <point x="21" y="988"></point>
      <point x="21" y="1016" type="curve" smooth="yes"></point>
      <point x="21" y="1196" type="line" smooth="yes"></point>
      <point x="21" y="1224"></point>
      <point x="37" y="1240"></point>
      <point x="65" y="1240" type="curve" smooth="yes"></point>
      <point x="791" y="1240" type="line" smooth="yes"></point>
      <point x="827" y="1240"></point>
      <point x="851" y="1229"></point>
      <point x="851" y="1198" type="curve" smooth="yes"></point>
      <point x="851" y="1187"></point>
      <point x="848" y="1175"></point>
      <point x="842" y="1159" type="curve" smooth="yes"></point>
      <point x="416" y="41" type="line" smooth="yes"></point>
      <point x="406" y="14"></point>
      <point x="387" y="0"></point>
      <point x="357" y="0" type="curve" smooth="yes"></point>
    </contour>
  </outline>
</glyph>
<glyph name="eight" format="1">
  <advance width="1003"></advance>
  <unicode hex="0038"></unicode>
  <outline>
    <contour>
      <point x="506" y="172" type="curve" smooth="yes"></point>
      <point x="615" y="172"></point>
      <point x="700" y="224"></point>
      <point x="700" y="340" type="curve" smooth="yes"></point>
      <point x="700" y="426"></point>
      <point x="624" y="519"></point>
      <point x="507" y="556" type="curve"></point>
      <point x="373" y="503"></point>
      <point x="317" y="430"></point>
      <point x="317" y="335" type="curve" smooth="yes"></point>
      <point x="317" y="229"></point>
      <point x="398" y="172"></point>
    </contour>
    <contour>
      <point x="506" y="746" type="curve"></point>
      <point x="619" y="779"></point>
      <point x="681" y="860"></point>
      <point x="681" y="942" type="curve" smooth="yes"></point>
      <point x="681" y="1025"></point>
      <point x="606" y="1078"></point>
      <point x="506" y="1078" type="curve" smooth="yes"></point>
      <point x="407" y="1078"></point>
      <point x="330" y="1025"></point>
      <point x="330" y="942" type="curve" smooth="yes"></point>
      <point x="330" y="845"></point>
      <point x="399" y="777"></point>
    </contour>
    <contour>
      <point x="499" y="1278" type="curve" smooth="yes"></point>
      <point x="720" y="1278"></point>
      <point x="927" y="1166"></point>
      <point x="927" y="940" type="curve" smooth="yes"></point>
      <point x="927" y="829"></point>
      <point x="851" y="724"></point>
      <point x="739" y="644" type="curve"></point>
      <point x="869" y="548"></point>
      <point x="950" y="460"></point>
      <point x="950" y="306" type="curve" smooth="yes"></point>
      <point x="950" y="82"></point>
      <point x="751" y="-33"></point>
      <point x="505" y="-33" type="curve" smooth="yes"></point>
      <point x="268" y="-33"></point>
      <point x="52" y="81"></point>
      <point x="52" y="305" type="curve" smooth="yes"></point>
      <point x="52" y="455"></point>
      <point x="135" y="557"></point>
      <point x="267" y="644" type="curve"></point>
      <point x="153" y="718"></point>
      <point x="76" y="829"></point>
      <point x="76" y="940" type="curve" smooth="yes"></point>
      <point x="76" y="1128"></point>
      <point x="258" y="1278"></point>
    </contour>
  </outline>
</glyph>
<glyph name="nine" format="1">
  <advance width="1020"></advance>
  <unicode hex="0039"></unicode>
  <outline>
    <contour>
      <point x="498" y="682" type="curve" smooth="yes"></point>
      <point x="630" y="682"></point>
      <point x="698" y="775"></point>
      <point x="698" y="867" type="curve" smooth="yes"></point>
      <point x="698" y="956"></point>
      <point x="635" y="1043"></point>
      <point x="504" y="1043" type="curve" smooth="yes"></point>
      <point x="374" y="1043"></point>
      <point x="308" y="951"></point>
      <point x="308" y="860" type="curve" smooth="yes"></point>
      <point x="308" y="770"></point>
      <point x="371" y="682"></point>
    </contour>
    <contour>
      <point x="174" y="0" type="line" smooth="yes"></point>
      <point x="151" y="0"></point>
      <point x="143" y="17"></point>
      <point x="157" y="34" type="curve" smooth="yes"></point>
      <point x="501" y="468" type="line"></point>
      <point x="481" y="465"></point>
      <point x="452" y="462"></point>
      <point x="432" y="462" type="curve" smooth="yes"></point>
      <point x="218" y="462"></point>
      <point x="27" y="619"></point>
      <point x="27" y="861" type="curve" smooth="yes"></point>
      <point x="27" y="1122"></point>
      <point x="242" y="1276"></point>
      <point x="498" y="1276" type="curve" smooth="yes"></point>
      <point x="768" y="1276"></point>
      <point x="973" y="1091"></point>
      <point x="973" y="859" type="curve" smooth="yes"></point>
      <point x="973" y="695"></point>
      <point x="909" y="579"></point>
      <point x="787" y="416" type="curve" smooth="yes"></point>
      <point x="726" y="334"></point>
      <point x="550" y="118"></point>
      <point x="481" y="34" type="curve" smooth="yes"></point>
      <point x="462" y="11"></point>
      <point x="439" y="0"></point>
      <point x="409" y="0" type="curve" smooth="yes"></point>
    </contour>
  </outline>
</glyph>
<glyph name="colon" format="1">
  <advance width="663"></advance>
  <unicode hex="003A"></unicode>
  <outline>
    <contour>
      <point x="329" y="568" type="curve" smooth="yes"></point>
      <point x="223" y="568"></point>
      <point x="160" y="649"></point>
      <point x="160" y="733" type="curve" smooth="yes"></point>
      <point x="160" y="814"></point>
      <point x="222" y="898"></point>
      <point x="329" y="898" type="curve" smooth="yes"></point>
      <point x="436" y="898"></point>
      <point x="497" y="813"></point>
      <point x="497" y="733" type="curve" smooth="yes"></point>
      <point x="497" y="650"></point>
      <point x="435" y="568"></point>
    </contour>
    <contour>
      <point x="329" y="-6" type="curve" smooth="yes"></point>
      <point x="223" y="-6"></point>
      <point x="160" y="75"></point>
      <point x="160" y="159" type="curve" smooth="yes"></point>
      <point x="160" y="240"></point>
      <point x="222" y="324"></point>
      <point x="329" y="324" type="curve" smooth="yes"></point>
      <point x="436" y="324"></point>
      <point x="497" y="239"></point>
      <point x="497" y="159" type="curve" smooth="yes"></point>
      <point x="497" y="76"></point>
      <point x="435" y="-6"></point>
    </contour>
  </outline>
</glyph>
<glyph name="semicolon" format="1">
  <advance width="663"></advance>
  <unicode hex="003B"></unicode>
  <outline>
    <contour>
      <point x="217" y="-200" type="line" smooth="yes"></point>
      <point x="194" y="-200"></point>
      <point x="186" y="-183"></point>
      <point x="200" y="-165" type="curve" smooth="yes"></point>
      <point x="239" y="-114"></point>
      <point x="276" y="-65"></point>
      <point x="296" y="-13" type="curve"></point>
      <point x="210" y="2"></point>
      <point x="160" y="74"></point>
      <point x="160" y="149" type="curve" smooth="yes"></point>
      <point x="160" y="230"></point>
      <point x="222" y="314"></point>
      <point x="329" y="314" type="curve" smooth="yes"></point>
      <point x="436" y="314"></point>
      <point x="497" y="229"></point>
      <point x="497" y="149" type="curve" smooth="yes"></point>
      <point x="497" y="63"></point>
      <point x="441" y="-41"></point>
      <point x="297" y="-171" type="curve" smooth="yes"></point>
      <point x="276" y="-190"></point>
      <point x="250" y="-200"></point>
      <point x="222" y="-200" type="curve" smooth="yes"></point>
    </contour>
    <contour>
      <point x="329" y="568" type="curve" smooth="yes"></point>
      <point x="223" y="568"></point>
      <point x="160" y="649"></point>
      <point x="160" y="733" type="curve" smooth="yes"></point>
      <point x="160" y="814"></point>
      <point x="222" y="898"></point>
      <point x="329" y="898" type="curve" smooth="yes"></point>
      <point x="436" y="898"></point>
      <point x="497" y="813"></point>
      <point x="497" y="733" type="curve" smooth="yes"></point>
      <point x="497" y="650"></point>
      <point x="435" y="568"></point>
    </contour>
  </outline>
</glyph>
<glyph name="less" format="1">
  <advance width="1003"></advance>
  <unicode hex="003C"></unicode>
  <outline>
    <contour>
      <point x="868" y="47" type="curve" smooth="yes"></point>
      <point x="43" y="504" type="line" smooth="yes"></point>
      <point x="33" y="510"></point>
      <point x="27" y="517"></point>
      <point x="27" y="525" type="curve" smooth="yes"></point>
      <point x="27" y="533"></point>
      <point x="33" y="540"></point>
      <point x="43" y="546" type="curve" smooth="yes"></point>
      <point x="868" y="1003" type="line" smooth="yes"></point>
      <point x="874" y="1006"></point>
      <point x="880" y="1007"></point>
      <point x="885" y="1007" type="curve" smooth="yes"></point>
      <point x="898" y="1007"></point>
      <point x="907" y="997"></point>
      <point x="907" y="980" type="curve" smooth="yes"></point>
      <point x="907" y="761" type="line" smooth="yes"></point>
      <point x="907" y="731"></point>
      <point x="894" y="711"></point>
      <point x="867" y="698" type="curve" smooth="yes"></point>
      <point x="495" y="525" type="line"></point>
      <point x="867" y="354" type="line" smooth="yes"></point>
      <point x="894" y="342"></point>
      <point x="907" y="322"></point>
      <point x="907" y="292" type="curve" smooth="yes"></point>
      <point x="907" y="70" type="line" smooth="yes"></point>
      <point x="907" y="53"></point>
      <point x="898" y="43"></point>
      <point x="885" y="43" type="curve" smooth="yes"></point>
      <point x="880" y="43"></point>
      <point x="874" y="44"></point>
    </contour>
  </outline>
</glyph>
<glyph name="equal" format="1">
  <advance width="986"></advance>
  <unicode hex="003D"></unicode>
  <outline>
    <contour>
      <point x="148" y="649" type="line" smooth="yes"></point>
      <point x="120" y="649"></point>
      <point x="104" y="665"></point>
      <point x="104" y="693" type="curve" smooth="yes"></point>
      <point x="104" y="773" type="line" smooth="yes"></point>
      <point x="104" y="801"></point>
      <point x="120" y="817"></point>
      <point x="148" y="817" type="curve" smooth="yes"></point>
      <point x="835" y="817" type="line" smooth="yes"></point>
      <point x="863" y="817"></point>
      <point x="879" y="801"></point>
      <point x="879" y="773" type="curve" smooth="yes"></point>
      <point x="879" y="693" type="line" smooth="yes"></point>
      <point x="879" y="665"></point>
      <point x="863" y="649"></point>
      <point x="835" y="649" type="curve" smooth="yes"></point>
    </contour>
    <contour>
      <point x="148" y="291" type="line" smooth="yes"></point>
      <point x="120" y="291"></point>
      <point x="104" y="307"></point>
      <point x="104" y="335" type="curve" smooth="yes"></point>
      <point x="104" y="415" type="line" smooth="yes"></point>
      <point x="104" y="443"></point>
      <point x="120" y="459"></point>
      <point x="148" y="459" type="curve" smooth="yes"></point>
      <point x="835" y="459" type="line" smooth="yes"></point>
      <point x="863" y="459"></point>
      <point x="879" y="443"></point>
      <point x="879" y="415" type="curve" smooth="yes"></point>
      <point x="879" y="335" type="line" smooth="yes"></point>
      <point x="879" y="307"></point>
      <point x="863" y="291"></point>
      <point x="835" y="291" type="curve" smooth="yes"></point>
    </contour>
  </outline>
</glyph>
<glyph name="greater" format="1">
  <advance width="1003"></advance>
  <unicode hex="003E"></unicode>
  <outline>
    <contour>
      <point x="83" y="70" type="curve" smooth="yes"></point>
      <point x="83" y="289" type="line" smooth="yes"></point>
      <point x="83" y="319"></point>
      <point x="96" y="339"></point>
      <point x="123" y="352" type="curve" smooth="yes"></point>
      <point x="495" y="525" type="line"></point>
      <point x="123" y="696" type="line" smooth="yes"></point>
      <point x="96" y="708"></point>
      <point x="83" y="728"></point>
      <point x="83" y="758" type="curve" smooth="yes"></point>
      <point x="83" y="980" type="line" smooth="yes"></point>
      <point x="83" y="997"></point>
      <point x="92" y="1007"></point>
      <point x="105" y="1007" type="curve" smooth="yes"></point>
      <point x="110" y="1007"></point>
      <point x="116" y="1006"></point>
      <point x="122" y="1003" type="curve" smooth="yes"></point>
      <point x="947" y="546" type="line" smooth="yes"></point>
      <point x="957" y="540"></point>
      <point x="963" y="533"></point>
      <point x="963" y="525" type="curve" smooth="yes"></point>
      <point x="963" y="517"></point>
      <point x="957" y="510"></point>
      <point x="947" y="504" type="curve" smooth="yes"></point>
      <point x="122" y="47" type="line" smooth="yes"></point>
      <point x="116" y="44"></point>
      <point x="110" y="43"></point>
      <point x="105" y="43" type="curve" smooth="yes"></point>
      <point x="92" y="43"></point>
      <point x="83" y="53"></point>
    </contour>
  </outline>
</glyph>
<glyph name="question" format="1">
  <advance width="867"></advance>
  <unicode hex="003F"></unicode>
  <outline>
    <contour>
      <point x="274" y="413" type="line" smooth="yes"></point>
      <point x="252" y="413"></point>
      <point x="244" y="430"></point>
      <point x="259" y="446" type="curve" smooth="yes"></point>
      <point x="489" y="711"></point>
      <point x="542" y="800"></point>
      <point x="542" y="879" type="curve" smooth="yes"></point>
      <point x="542" y="884"></point>
      <point x="541" y="890"></point>
      <point x="541" y="895" type="curve" smooth="yes"></point>
      <point x="534" y="974"></point>
      <point x="466" y="1017"></point>
      <point x="390" y="1017" type="curve" smooth="yes"></point>
      <point x="321" y="1017"></point>
      <point x="231" y="978"></point>
      <point x="180" y="953" type="curve" smooth="yes"></point>
      <point x="172" y="949"></point>
      <point x="164" y="947"></point>
      <point x="157" y="947" type="curve" smooth="yes"></point>
      <point x="142" y="947"></point>
      <point x="131" y="956"></point>
      <point x="123" y="974" type="curve" smooth="yes"></point>
      <point x="61" y="1113" type="line" smooth="yes"></point>
      <point x="58" y="1120"></point>
      <point x="57" y="1127"></point>
      <point x="57" y="1133" type="curve" smooth="yes"></point>
      <point x="57" y="1147"></point>
      <point x="64" y="1160"></point>
      <point x="79" y="1168" type="curve" smooth="yes"></point>
      <point x="142" y="1204"></point>
      <point x="285" y="1276"></point>
      <point x="425" y="1276" type="curve" smooth="yes"></point>
      <point x="675" y="1276"></point>
      <point x="813" y="1144"></point>
      <point x="813" y="949" type="curve" smooth="yes"></point>
      <point x="813" y="820"></point>
      <point x="693" y="660"></point>
      <point x="386" y="450" type="curve" smooth="yes"></point>
      <point x="362" y="433"></point>
      <point x="341" y="413"></point>
      <point x="312" y="413" type="curve" smooth="yes"></point>
    </contour>
    <contour>
      <point x="289" y="-16" type="curve" smooth="yes"></point>
      <point x="183" y="-16"></point>
      <point x="120" y="65"></point>
      <point x="120" y="149" type="curve" smooth="yes"></point>
      <point x="120" y="230"></point>
      <point x="182" y="314"></point>
      <point x="289" y="314" type="curve" smooth="yes"></point>
      <point x="396" y="314"></point>
      <point x="457" y="229"></point>
      <point x="457" y="149" type="curve" smooth="yes"></point>
      <point x="457" y="66"></point>
      <point x="395" y="-16"></point>
    </contour>
  </outline>
</glyph>
<glyph name="A" format="1">
  <advance width="1139"></advance>
  <unicode hex="0041"></unicode>
  <outline>
    <contour>
      <point x="0" y="0" type="line" smooth="yes"></point>
      <point x="-18" y="0"></point>
      <point x="-29" y="10"></point>
      <point x="-29" y="24" type="curve" smooth="yes"></point>
      <point x="-29" y="29"></point>
      <point x="-28" y="34"></point>
      <point x="-25" y="40" type="curve" smooth="yes"></point>
      <point x="534" y="1271" type="line" smooth="yes"></point>
      <point x="539" y="1281"></point>
      <point x="546" y="1286"></point>
      <point x="553" y="1286" type="curve" smooth="yes"></point>
      <point x="560" y="1286"></point>
      <point x="566" y="1281"></point>
      <point x="571" y="1271" type="curve" smooth="yes"></point>
      <point x="1154" y="40" type="line" smooth="yes"></point>
      <point x="1157" y="34"></point>
      <point x="1158" y="29"></point>
      <point x="1158" y="24" type="curve" smooth="yes"></point>
      <point x="1158" y="10"></point>
      <point x="1147" y="0"></point>
      <point x="1129" y="0" type="curve" smooth="yes"></point>
      <point x="909" y="0" type="line" smooth="yes"></point>
      <point x="879" y="0"></point>
      <point x="858" y="12"></point>
      <point x="846" y="40" type="curve" smooth="yes"></point>
      <point x="742" y="289" type="line"></point>
      <point x="382" y="289" type="line"></point>
      <point x="287" y="41" type="line" smooth="yes"></point>
      <point x="277" y="13"></point>
      <point x="255" y="0"></point>
      <point x="226" y="0" type="curve" smooth="yes"></point>
    </contour>
    <contour>
      <point x="666" y="474" type="line"></point>
      <point x="556" y="740" type="line"></point>
      <point x="453" y="474" type="line"></point>
    </contour>
  </outline>
</glyph>
<glyph name="B" format="1">
  <advance width="1037"></advance>
  <unicode hex="0042"></unicode>
  <outline>
    <contour>
      <point x="401" y="1047" type="line"></point>
      <point x="401" y="748" type="line"></point>
      <point x="415" y="748" type="line" smooth="yes"></point>
      <point x="505" y="748"></point>
      <point x="660" y="769"></point>
      <point x="660" y="894" type="curve" smooth="yes"></point>
      <point x="660" y="997"></point>
      <point x="601" y="1047"></point>
      <point x="430" y="1047" type="curve" smooth="yes"></point>
    </contour>
    <contour>
      <point x="401" y="590" type="line"></point>
      <point x="401" y="194" type="line"></point>
      <point x="459" y="194" type="line" smooth="yes"></point>
      <point x="629" y="194"></point>
      <point x="697" y="290"></point>
      <point x="697" y="393" type="curve" smooth="yes"></point>
      <point x="697" y="508"></point>
      <point x="606" y="590"></point>
      <point x="466" y="590" type="curve" smooth="yes"></point>
    </contour>
    <contour>
      <point x="137" y="0" type="line" smooth="yes"></point>
      <point x="109" y="0"></point>
      <point x="93" y="16"></point>
      <point x="93" y="44" type="curve" smooth="yes"></point>
      <point x="93" y="1196" type="line" smooth="yes"></point>
      <point x="93" y="1224"></point>
      <point x="109" y="1240"></point>
      <point x="137" y="1240" type="curve" smooth="yes"></point>
      <point x="459" y="1240" type="line" smooth="yes"></point>
      <point x="752" y="1240"></point>
      <point x="918" y="1139"></point>
      <point x="918" y="919" type="curve" smooth="yes"></point>
      <point x="918" y="803"></point>
      <point x="847" y="729"></point>
      <point x="767" y="694" type="curve"></point>
      <point x="883" y="633"></point>
      <point x="985" y="564"></point>
      <point x="985" y="380" type="curve" smooth="yes"></point>
      <point x="985" y="120"></point>
      <point x="763" y="0"></point>
      <point x="489" y="0" type="curve" smooth="yes"></point>
    </contour>
  </outline>
</glyph>
<glyph name="C" format="1">
  <advance width="1190"></advance>
  <unicode hex="0043"></unicode>
  <outline>
    <contour>
      <point x="708" y="-33" type="curve" smooth="yes"></point>
      <point x="320" y="-33"></point>
      <point x="37" y="219"></point>
      <point x="37" y="622" type="curve" smooth="yes"></point>
      <point x="37" y="1026"></point>
      <point x="320" y="1275"></point>
      <point x="708" y="1275" type="curve" smooth="yes"></point>
      <point x="878" y="1275"></point>
      <point x="1030" y="1218"></point>
      <point x="1095" y="1190" type="curve" smooth="yes"></point>
      <point x="1117" y="1180"></point>
      <point x="1129" y="1162"></point>
      <point x="1129" y="1138" type="curve" smooth="yes"></point>
      <point x="1129" y="932" type="line" smooth="yes"></point>
      <point x="1129" y="908"></point>
      <point x="1112" y="899"></point>
      <point x="1092" y="912" type="curve" smooth="yes"></point>
      <point x="988" y="976"></point>
      <point x="861" y="1014"></point>
      <point x="739" y="1014" type="curve" smooth="yes"></point>
      <point x="530" y="1014"></point>
      <point x="343" y="906"></point>
      <point x="343" y="622" type="curve" smooth="yes"></point>
      <point x="343" y="339"></point>
      <point x="530" y="228"></point>
      <point x="739" y="228" type="curve" smooth="yes"></point>
      <point x="861" y="228"></point>
      <point x="988" y="266"></point>
      <point x="1092" y="330" type="curve" smooth="yes"></point>
      <point x="1112" y="343"></point>
      <point x="1129" y="334"></point>
      <point x="1129" y="310" type="curve" smooth="yes"></point>
      <point x="1129" y="104" type="line" smooth="yes"></point>
      <point x="1129" y="80"></point>
      <point x="1117" y="62"></point>
      <point x="1095" y="52" type="curve" smooth="yes"></point>
      <point x="1030" y="24"></point>
      <point x="878" y="-33"></point>
    </contour>
  </outline>
</glyph>
<glyph name="D" format="1">
  <advance width="1258"></advance>
  <unicode hex="0044"></unicode>
  <outline>
    <contour>
      <point x="371" y="1012" type="line"></point>
      <point x="371" y="229" type="line"></point>
      <point x="544" y="229" type="line" smooth="yes"></point>
      <point x="806" y="229"></point>
      <point x="926" y="389"></point>
      <point x="926" y="623" type="curve" smooth="yes"></point>
      <point x="926" y="824"></point>
      <point x="809" y="1012"></point>
      <point x="585" y="1012" type="curve" smooth="yes"></point>
    </contour>
    <contour>
      <point x="107" y="0" type="line" smooth="yes"></point>
      <point x="79" y="0"></point>
      <point x="63" y="16"></point>
      <point x="63" y="44" type="curve" smooth="yes"></point>
      <point x="63" y="1196" type="line" smooth="yes"></point>
      <point x="63" y="1224"></point>
      <point x="79" y="1240"></point>
      <point x="107" y="1240" type="curve" smooth="yes"></point>
      <point x="606" y="1240" type="line" smooth="yes"></point>
      <point x="1012" y="1240"></point>
      <point x="1232" y="984"></point>
      <point x="1232" y="626" type="curve" smooth="yes"></point>
      <point x="1232" y="296"></point>
      <point x="996" y="0"></point>
      <point x="579" y="0" type="curve" smooth="yes"></point>
    </contour>
  </outline>
</glyph>
<glyph name="E" format="1">
  <advance width="952"></advance>
  <unicode hex="0045"></unicode>
  <outline>
    <contour>
      <point x="422" y="996" type="line"></point>
      <point x="422" y="754" type="line"></point>
      <point x="733" y="754" type="line" smooth="yes"></point>
      <point x="761" y="754"></point>
      <point x="777" y="738"></point>
      <point x="777" y="710" type="curve" smooth="yes"></point>
      <point x="777" y="564" type="line" smooth="yes"></point>
      <point x="777" y="536"></point>
      <point x="761" y="520"></point>
      <point x="733" y="520" type="curve" smooth="yes"></point>
      <point x="422" y="520" type="line"></point>
      <point x="422" y="244" type="line"></point>
      <point x="813" y="244" type="line" smooth="yes"></point>
      <point x="841" y="244"></point>
      <point x="857" y="228"></point>
      <point x="857" y="200" type="curve" smooth="yes"></point>
      <point x="857" y="44" type="line" smooth="yes"></point>
      <point x="857" y="16"></point>
      <point x="841" y="0"></point>
      <point x="813" y="0" type="curve" smooth="yes"></point>
      <point x="158" y="0" type="line" smooth="yes"></point>
      <point x="130" y="0"></point>
      <point x="114" y="16"></point>
      <point x="114" y="44" type="curve" smooth="yes"></point>
      <point x="114" y="1196" type="line" smooth="yes"></point>
      <point x="114" y="1224"></point>
      <point x="130" y="1240"></point>
      <point x="158" y="1240" type="curve" smooth="yes"></point>
      <point x="799" y="1240" type="line" smooth="yes"></point>
      <point x="827" y="1240"></point>
      <point x="843" y="1224"></point>
      <point x="843" y="1196" type="curve" smooth="yes"></point>
      <point x="843" y="1040" type="line" smooth="yes"></point>
      <point x="843" y="1012"></point>
      <point x="827" y="996"></point>
      <point x="799" y="996" type="curve" smooth="yes"></point>
    </contour>
  </outline>
</glyph>
<glyph name="F" format="1">
  <advance width="918"></advance>
  <unicode hex="0046"></unicode>
  <outline>
    <contour>
      <point x="422" y="508" type="line"></point>
      <point x="422" y="44" type="line" smooth="yes"></point>
      <point x="422" y="16"></point>
      <point x="406" y="0"></point>
      <point x="378" y="0" type="curve" smooth="yes"></point>
      <point x="158" y="0" type="line" smooth="yes"></point>
      <point x="130" y="0"></point>
      <point x="114" y="16"></point>
      <point x="114" y="44" type="curve" smooth="yes"></point>
      <point x="114" y="1196" type="line" smooth="yes"></point>
      <point x="114" y="1224"></point>
      <point x="130" y="1240"></point>
      <point x="158" y="1240" type="curve" smooth="yes"></point>
      <point x="793" y="1240" type="line" smooth="yes"></point>
      <point x="821" y="1240"></point>
      <point x="837" y="1224"></point>
      <point x="837" y="1196" type="curve" smooth="yes"></point>
      <point x="837" y="1039" type="line" smooth="yes"></point>
      <point x="837" y="1011"></point>
      <point x="821" y="995"></point>
      <point x="793" y="995" type="curve" smooth="yes"></point>
      <point x="422" y="995" type="line"></point>
      <point x="422" y="748" type="line"></point>
      <point x="727" y="748" type="line" smooth="yes"></point>
      <point x="755" y="748"></point>
      <point x="771" y="732"></point>
      <point x="771" y="704" type="curve" smooth="yes"></point>
      <point x="771" y="552" type="line" smooth="yes"></point>
      <point x="771" y="524"></point>
      <point x="755" y="508"></point>
      <point x="727" y="508" type="curve" smooth="yes"></point>
    </contour>
  </outline>
</glyph>
<glyph name="G" format="1">
  <advance width="1292"></advance>
  <unicode hex="0047"></unicode>
  <outline>
    <contour>
      <point x="711" y="-33" type="curve" smooth="yes"></point>
      <point x="323" y="-33"></point>
      <point x="27" y="219"></point>
      <point x="27" y="622" type="curve" smooth="yes"></point>
      <point x="27" y="1026"></point>
      <point x="366" y="1275"></point>
      <point x="774" y="1275" type="curve" smooth="yes"></point>
      <point x="953" y="1275"></point>
      <point x="1115" y="1218"></point>
      <point x="1181" y="1190" type="curve" smooth="yes"></point>
      <point x="1203" y="1180"></point>
      <point x="1215" y="1162"></point>
      <point x="1215" y="1138" type="curve" smooth="yes"></point>
      <point x="1215" y="932" type="line" smooth="yes"></point>
      <point x="1215" y="908"></point>
      <point x="1199" y="899"></point>
      <point x="1178" y="912" type="curve" smooth="yes"></point>
      <point x="1075" y="976"></point>
      <point x="907" y="1014"></point>
      <point x="785" y="1014" type="curve" smooth="yes"></point>
      <point x="576" y="1014"></point>
      <point x="333" y="906"></point>
      <point x="333" y="622" type="curve" smooth="yes"></point>
      <point x="333" y="339"></point>
      <point x="535" y="217"></point>
      <point x="744" y="217" type="curve" smooth="yes"></point>
      <point x="824" y="217"></point>
      <point x="896" y="223"></point>
      <point x="972" y="253" type="curve"></point>
      <point x="972" y="483" type="line"></point>
      <point x="744" y="483" type="line" smooth="yes"></point>
      <point x="716" y="483"></point>
      <point x="700" y="499"></point>
      <point x="700" y="527" type="curve" smooth="yes"></point>
      <point x="700" y="673" type="line" smooth="yes"></point>
      <point x="700" y="701"></point>
      <point x="716" y="717"></point>
      <point x="744" y="717" type="curve" smooth="yes"></point>
      <point x="1201" y="717" type="line" smooth="yes"></point>
      <point x="1229" y="717"></point>
      <point x="1245" y="701"></point>
      <point x="1245" y="673" type="curve" smooth="yes"></point>
      <point x="1245" y="144" type="line" smooth="yes"></point>
      <point x="1245" y="115"></point>
      <point x="1232" y="93"></point>
      <point x="1207" y="79" type="curve" smooth="yes"></point>
      <point x="1085" y="11"></point>
      <point x="948" y="-33"></point>
    </contour>
  </outline>
</glyph>
<glyph name="H" format="1">
  <advance width="1241"></advance>
  <unicode hex="0048"></unicode>
  <outline>
    <contour>
      <point x="1170" y="1196" type="curve" smooth="yes"></point>
      <point x="1170" y="44" type="line" smooth="yes"></point>
      <point x="1170" y="16"></point>
      <point x="1154" y="0"></point>
      <point x="1126" y="0" type="curve" smooth="yes"></point>
      <point x="906" y="0" type="line" smooth="yes"></point>
      <point x="878" y="0"></point>
      <point x="862" y="16"></point>
      <point x="862" y="44" type="curve" smooth="yes"></point>
      <point x="862" y="521" type="line"></point>
      <point x="376" y="521" type="line"></point>
      <point x="376" y="44" type="line" smooth="yes"></point>
      <point x="376" y="16"></point>
      <point x="360" y="0"></point>
      <point x="332" y="0" type="curve" smooth="yes"></point>
      <point x="112" y="0" type="line" smooth="yes"></point>
      <point x="84" y="0"></point>
      <point x="68" y="16"></point>
      <point x="68" y="44" type="curve" smooth="yes"></point>
      <point x="68" y="1196" type="line" smooth="yes"></point>
      <point x="68" y="1224"></point>
      <point x="84" y="1240"></point>
      <point x="112" y="1240" type="curve" smooth="yes"></point>
      <point x="332" y="1240" type="line" smooth="yes"></point>
      <point x="360" y="1240"></point>
      <point x="376" y="1224"></point>
      <point x="376" y="1196" type="curve" smooth="yes"></point>
      <point x="376" y="761" type="line"></point>
      <point x="862" y="761" type="line"></point>
      <point x="862" y="1196" type="line" smooth="yes"></point>
      <point x="862" y="1224"></point>
      <point x="878" y="1240"></point>
      <point x="906" y="1240" type="curve" smooth="yes"></point>
      <point x="1126" y="1240" type="line" smooth="yes"></point>
      <point x="1154" y="1240"></point>
      <point x="1170" y="1224"></point>
    </contour>
  </outline>
</glyph>
<glyph name="I" format="1">
  <advance width="680"></advance>
  <unicode hex="0049"></unicode>
  <outline>
    <contour>
      <point x="489" y="1196" type="curve" smooth="yes"></point>
      <point x="489" y="44" type="line" smooth="yes"></point>
      <point x="489" y="16"></point>
      <point x="473" y="0"></point>
      <point x="445" y="0" type="curve" smooth="yes"></point>
      <point x="225" y="0" type="line" smooth="yes"></point>
      <point x="197" y="0"></point>
      <point x="181" y="16"></point>
      <point x="181" y="44" type="curve" smooth="yes"></point>
      <point x="181" y="1196" type="line" smooth="yes"></point>
      <point x="181" y="1224"></point>
      <point x="197" y="1240"></point>
      <point x="225" y="1240" type="curve" smooth="yes"></point>
      <point x="445" y="1240" type="line" smooth="yes"></point>
      <point x="473" y="1240"></point>
      <point x="489" y="1224"></point>
    </contour>
  </outline>
</glyph>
<glyph name="J" format="1">
  <advance width="799"></advance>
  <unicode hex="004A"></unicode>
  <outline>
    <contour>
      <point x="97" y="-165" type="curve"></point>
      <point x="94" y="-165" type="line" smooth="yes"></point>
      <point x="67" y="-165"></point>
      <point x="53" y="-152"></point>
      <point x="47" y="-111" type="curve" smooth="yes"></point>
      <point x="30" y="-7" type="line" smooth="yes"></point>
      <point x="28" y="4"></point>
      <point x="27" y="14"></point>
      <point x="27" y="24" type="curve" smooth="yes"></point>
      <point x="27" y="51"></point>
      <point x="35" y="70"></point>
      <point x="62" y="72" type="curve" smooth="yes"></point>
      <point x="233" y="85"></point>
      <point x="388" y="158"></point>
      <point x="388" y="385" type="curve" smooth="yes"></point>
      <point x="388" y="1196" type="line" smooth="yes"></point>
      <point x="388" y="1224"></point>
      <point x="404" y="1240"></point>
      <point x="432" y="1240" type="curve" smooth="yes"></point>
      <point x="636" y="1240" type="line" smooth="yes"></point>
      <point x="664" y="1240"></point>
      <point x="680" y="1224"></point>
      <point x="680" y="1196" type="curve" smooth="yes"></point>
      <point x="680" y="372" type="line" smooth="yes"></point>
      <point x="680" y="26"></point>
      <point x="426" y="-151"></point>
    </contour>
  </outline>
</glyph>
<glyph name="K" format="1">
  <advance width="1173"></advance>
  <unicode hex="004B"></unicode>
  <outline>
    <contour>
      <point x="376" y="1196" type="curve" smooth="yes"></point>
      <point x="376" y="685" type="line"></point>
      <point x="803" y="1205" type="line" smooth="yes"></point>
      <point x="822" y="1229"></point>
      <point x="844" y="1240"></point>
      <point x="874" y="1240" type="curve" smooth="yes"></point>
      <point x="1127" y="1240" type="line" smooth="yes"></point>
      <point x="1142" y="1240"></point>
      <point x="1155" y="1228"></point>
      <point x="1155" y="1212" type="curve" smooth="yes"></point>
      <point x="1155" y="1204"></point>
      <point x="1152" y="1195"></point>
      <point x="1144" y="1185" type="curve" smooth="yes"></point>
      <point x="685" y="635" type="line"></point>
      <point x="1170" y="55" type="line" smooth="yes"></point>
      <point x="1177" y="46"></point>
      <point x="1181" y="35"></point>
      <point x="1181" y="25" type="curve" smooth="yes"></point>
      <point x="1181" y="11"></point>
      <point x="1173" y="0"></point>
      <point x="1153" y="0" type="curve" smooth="yes"></point>
      <point x="889" y="0" type="line" smooth="yes"></point>
      <point x="859" y="0"></point>
      <point x="838" y="13"></point>
      <point x="819" y="35" type="curve" smooth="yes"></point>
      <point x="376" y="564" type="line"></point>
      <point x="376" y="44" type="line" smooth="yes"></point>
      <point x="376" y="16"></point>
      <point x="360" y="0"></point>
      <point x="332" y="0" type="curve" smooth="yes"></point>
      <point x="112" y="0" type="line" smooth="yes"></point>
      <point x="84" y="0"></point>
      <point x="68" y="16"></point>
      <point x="68" y="44" type="curve" smooth="yes"></point>
      <point x="68" y="1196" type="line" smooth="yes"></point>
      <point x="68" y="1224"></point>
      <point x="84" y="1240"></point>
      <point x="112" y="1240" type="curve" smooth="yes"></point>
      <point x="332" y="1240" type="line" smooth="yes"></point>
      <point x="360" y="1240"></point>
      <point x="376" y="1224"></point>
    </contour>
  </outline>
</glyph>
<glyph name="L" format="1">
  <advance width="1003"></advance>
  <unicode hex="004C"></unicode>
  <outline>
    <contour>
      <point x="412" y="1196" type="curve" smooth="yes"></point>
      <point x="412" y="244" type="line"></point>
      <point x="854" y="244" type="line" smooth="yes"></point>
      <point x="882" y="244"></point>
      <point x="898" y="228"></point>
      <point x="898" y="200" type="curve" smooth="yes"></point>
      <point x="898" y="44" type="line" smooth="yes"></point>
      <point x="898" y="16"></point>
      <point x="882" y="0"></point>
      <point x="854" y="0" type="curve" smooth="yes"></point>
      <point x="148" y="0" type="line" smooth="yes"></point>
      <point x="120" y="0"></point>
      <point x="104" y="16"></point>
      <point x="104" y="44" type="curve" smooth="yes"></point>
      <point x="104" y="1196" type="line" smooth="yes"></point>
      <point x="104" y="1224"></point>
      <point x="120" y="1240"></point>
      <point x="148" y="1240" type="curve" smooth="yes"></point>
      <point x="368" y="1240" type="line" smooth="yes"></point>
      <point x="396" y="1240"></point>
      <point x="412" y="1224"></point>
    </contour>
  </outline>
</glyph>
<glyph name="M" format="1">
  <advance width="1513"></advance>
  <unicode hex="004D"></unicode>
  <outline>
    <contour>
      <point x="43" y="0" type="line" smooth="yes"></point>
      <point x="19" y="0"></point>
      <point x="6" y="13"></point>
      <point x="6" y="34" type="curve" smooth="yes"></point>
      <point x="6" y="37"></point>
      <point x="6" y="40"></point>
      <point x="7" y="43" type="curve" smooth="yes"></point>
      <point x="207" y="1238" type="line" smooth="yes"></point>
      <point x="210" y="1255"></point>
      <point x="222" y="1264"></point>
      <point x="236" y="1264" type="curve" smooth="yes"></point>
      <point x="247" y="1264"></point>
      <point x="258" y="1258"></point>
      <point x="267" y="1244" type="curve" smooth="yes"></point>
      <point x="759" y="465" type="line"></point>
      <point x="1250" y="1244" type="line" smooth="yes"></point>
      <point x="1259" y="1258"></point>
      <point x="1272" y="1265"></point>
      <point x="1283" y="1265" type="curve" smooth="yes"></point>
      <point x="1296" y="1265"></point>
      <point x="1307" y="1256"></point>
      <point x="1310" y="1238" type="curve" smooth="yes"></point>
      <point x="1511" y="43" type="line" smooth="yes"></point>
      <point x="1512" y="40"></point>
      <point x="1512" y="37"></point>
      <point x="1512" y="34" type="curve" smooth="yes"></point>
      <point x="1512" y="13"></point>
      <point x="1498" y="0"></point>
      <point x="1474" y="0" type="curve" smooth="yes"></point>
      <point x="1278" y="0" type="line" smooth="yes"></point>
      <point x="1249" y="0"></point>
      <point x="1232" y="15"></point>
      <point x="1227" y="43" type="curve" smooth="yes"></point>
      <point x="1135" y="615" type="line"></point>
      <point x="783" y="61" type="line" smooth="yes"></point>
      <point x="770" y="40"></point>
      <point x="748" y="40"></point>
      <point x="735" y="61" type="curve" smooth="yes"></point>
      <point x="383" y="615" type="line"></point>
      <point x="290" y="43" type="line" smooth="yes"></point>
      <point x="285" y="15"></point>
      <point x="268" y="0"></point>
      <point x="239" y="0" type="curve" smooth="yes"></point>
    </contour>
  </outline>
</glyph>
<glyph name="N" format="1">
  <advance width="1241"></advance>
  <unicode hex="004E"></unicode>
  <outline>
    <contour>
      <point x="1082" y="12" type="curve" smooth="yes"></point>
      <point x="370" y="653" type="line"></point>
      <point x="370" y="44" type="line" smooth="yes"></point>
      <point x="370" y="16"></point>
      <point x="354" y="0"></point>
      <point x="326" y="0" type="curve" smooth="yes"></point>
      <point x="112" y="0" type="line" smooth="yes"></point>
      <point x="84" y="0"></point>
      <point x="68" y="16"></point>
      <point x="68" y="44" type="curve" smooth="yes"></point>
      <point x="68" y="1196" type="line" smooth="yes"></point>
      <point x="68" y="1234"></point>
      <point x="83" y="1253"></point>
      <point x="105" y="1253" type="curve" smooth="yes"></point>
      <point x="119" y="1253"></point>
      <point x="137" y="1245"></point>
      <point x="155" y="1229" type="curve" smooth="yes"></point>
      <point x="862" y="593" type="line"></point>
      <point x="862" y="1196" type="line" smooth="yes"></point>
      <point x="862" y="1224"></point>
      <point x="878" y="1240"></point>
      <point x="906" y="1240" type="curve" smooth="yes"></point>
      <point x="1120" y="1240" type="line" smooth="yes"></point>
      <point x="1148" y="1240"></point>
      <point x="1164" y="1224"></point>
      <point x="1164" y="1196" type="curve" smooth="yes"></point>
      <point x="1164" y="47" type="line" smooth="yes"></point>
      <point x="1164" y="9"></point>
      <point x="1149" y="-10"></point>
      <point x="1128" y="-10" type="curve" smooth="yes"></point>
      <point x="1115" y="-10"></point>
      <point x="1099" y="-3"></point>
    </contour>
  </outline>
</glyph>
<glyph name="O" format="1">
  <advance width="1377"></advance>
  <unicode hex="004F"></unicode>
  <outline>
    <contour>
      <point x="683" y="-33" type="curve" smooth="yes"></point>
      <point x="350" y="-33"></point>
      <point x="16" y="185"></point>
      <point x="16" y="621" type="curve" smooth="yes"></point>
      <point x="16" y="1058"></point>
      <point x="350" y="1276"></point>
      <point x="682" y="1276" type="curve" smooth="yes"></point>
      <point x="1015" y="1276"></point>
      <point x="1348" y="1058"></point>
      <point x="1348" y="624" type="curve" smooth="yes"></point>
      <point x="1348" y="185"></point>
      <point x="1015" y="-33"></point>
    </contour>
    <contour>
      <point x="682" y="225" type="curve" smooth="yes"></point>
      <point x="870" y="225"></point>
      <point x="1044" y="353"></point>
      <point x="1044" y="619" type="curve" smooth="yes"></point>
      <point x="1044" y="879"></point>
      <point x="870" y="1018"></point>
      <point x="683" y="1018" type="curve" smooth="yes"></point>
      <point x="495" y="1018"></point>
      <point x="322" y="879"></point>
      <point x="322" y="620" type="curve" smooth="yes"></point>
      <point x="322" y="352"></point>
      <point x="495" y="225"></point>
    </contour>
  </outline>
</glyph>
<glyph name="P" format="1">
  <advance width="1003"></advance>
  <unicode hex="0050"></unicode>
  <outline>
    <contour>
      <point x="407" y="1053" type="line"></point>
      <point x="407" y="652" type="line"></point>
      <point x="423" y="652" type="line" smooth="yes"></point>
      <point x="563" y="652"></point>
      <point x="653" y="741"></point>
      <point x="653" y="856" type="curve" smooth="yes"></point>
      <point x="653" y="959"></point>
      <point x="590" y="1053"></point>
      <point x="419" y="1053" type="curve" smooth="yes"></point>
    </contour>
    <contour>
      <point x="407" y="486" type="line"></point>
      <point x="407" y="44" type="line" smooth="yes"></point>
      <point x="407" y="16"></point>
      <point x="391" y="0"></point>
      <point x="363" y="0" type="curve" smooth="yes"></point>
      <point x="143" y="0" type="line" smooth="yes"></point>
      <point x="115" y="0"></point>
      <point x="99" y="16"></point>
      <point x="99" y="44" type="curve" smooth="yes"></point>
      <point x="99" y="1196" type="line" smooth="yes"></point>
      <point x="99" y="1224"></point>
      <point x="115" y="1240"></point>
      <point x="143" y="1240" type="curve" smooth="yes"></point>
      <point x="465" y="1240" type="line" smooth="yes"></point>
      <point x="740" y="1240"></point>
      <point x="937" y="1121"></point>
      <point x="937" y="861" type="curve" smooth="yes"></point>
      <point x="937" y="501"></point>
      <point x="574" y="486"></point>
      <point x="418" y="486" type="curve" smooth="yes"></point>
    </contour>
  </outline>
</glyph>
<glyph name="Q" format="1">
  <advance width="1377"></advance>
  <unicode hex="0051"></unicode>
  <outline>
    <contour>
      <point x="1220" y="-197" type="line" smooth="yes"></point>
      <point x="1210" y="-205"></point>
      <point x="1200" y="-208"></point>
      <point x="1190" y="-208" type="curve" smooth="yes"></point>
      <point x="1178" y="-208"></point>
      <point x="1166" y="-203"></point>
      <point x="1156" y="-191" type="curve" smooth="yes"></point>
      <point x="982" y="30" type="line"></point>
      <point x="889" y="-12"></point>
      <point x="786" y="-33"></point>
      <point x="683" y="-33" type="curve" smooth="yes"></point>
      <point x="350" y="-33"></point>
      <point x="16" y="185"></point>
      <point x="16" y="621" type="curve" smooth="yes"></point>
      <point x="16" y="1058"></point>
      <point x="350" y="1276"></point>
      <point x="682" y="1276" type="curve" smooth="yes"></point>
      <point x="1015" y="1276"></point>
      <point x="1348" y="1058"></point>
      <point x="1348" y="624" type="curve" smooth="yes"></point>
      <point x="1348" y="405"></point>
      <point x="1265" y="240"></point>
      <point x="1141" y="131" type="curve"></point>
      <point x="1331" y="-56" type="line" smooth="yes"></point>
      <point x="1341" y="-65"></point>
      <point x="1346" y="-75"></point>
      <point x="1346" y="-85" type="curve" smooth="yes"></point>
      <point x="1346" y="-95"></point>
      <point x="1340" y="-104"></point>
      <point x="1329" y="-113" type="curve" smooth="yes"></point>
    </contour>
    <contour>
      <point x="682" y="225" type="curve" smooth="yes"></point>
      <point x="727" y="225"></point>
      <point x="771" y="232"></point>
      <point x="812" y="247" type="curve"></point>
      <point x="704" y="384" type="line" smooth="yes"></point>
      <point x="695" y="394"></point>
      <point x="690" y="405"></point>
      <point x="690" y="415" type="curve" smooth="yes"></point>
      <point x="690" y="426"></point>
      <point x="696" y="438"></point>
      <point x="706" y="448" type="curve"></point>
      <point x="732" y="470" type="line"></point>
      <point x="742" y="480"></point>
      <point x="753" y="486"></point>
      <point x="764" y="486" type="curve" smooth="yes"></point>
      <point x="775" y="486"></point>
      <point x="786" y="481"></point>
      <point x="796" y="471" type="curve" smooth="yes"></point>
      <point x="940" y="329" type="line"></point>
      <point x="1003" y="394"></point>
      <point x="1044" y="490"></point>
      <point x="1044" y="619" type="curve" smooth="yes"></point>
      <point x="1044" y="879"></point>
      <point x="870" y="1018"></point>
      <point x="683" y="1018" type="curve" smooth="yes"></point>
      <point x="495" y="1018"></point>
      <point x="322" y="879"></point>
      <point x="322" y="620" type="curve" smooth="yes"></point>
      <point x="322" y="352"></point>
      <point x="495" y="225"></point>
    </contour>
  </outline>
</glyph>
<glyph name="R" format="1">
  <advance width="1071"></advance>
  <unicode hex="0052"></unicode>
  <outline>
    <contour>
      <point x="386" y="1048" type="line"></point>
      <point x="386" y="687" type="line"></point>
      <point x="443" y="687" type="line" smooth="yes"></point>
      <point x="562" y="687"></point>
      <point x="663" y="758"></point>
      <point x="663" y="873" type="curve" smooth="yes"></point>
      <point x="663" y="976"></point>
      <point x="594" y="1048"></point>
      <point x="439" y="1048" type="curve" smooth="yes"></point>
    </contour>
    <contour>
      <point x="386" y="522" type="line"></point>
      <point x="386" y="44" type="line" smooth="yes"></point>
      <point x="386" y="16"></point>
      <point x="370" y="0"></point>
      <point x="342" y="0" type="curve" smooth="yes"></point>
      <point x="122" y="0" type="line" smooth="yes"></point>
      <point x="94" y="0"></point>
      <point x="78" y="16"></point>
      <point x="78" y="44" type="curve" smooth="yes"></point>
      <point x="78" y="1196" type="line" smooth="yes"></point>
      <point x="78" y="1224"></point>
      <point x="94" y="1240"></point>
      <point x="122" y="1240" type="curve" smooth="yes"></point>
      <point x="475" y="1240" type="line" smooth="yes"></point>
      <point x="727" y="1240"></point>
      <point x="947" y="1138"></point>
      <point x="947" y="878" type="curve" smooth="yes"></point>
      <point x="947" y="741"></point>
      <point x="875" y="618"></point>
      <point x="705" y="574" type="curve"></point>
      <point x="1053" y="36" type="line" smooth="yes"></point>
      <point x="1057" y="30"></point>
      <point x="1059" y="23"></point>
      <point x="1059" y="18" type="curve" smooth="yes"></point>
      <point x="1059" y="7"></point>
      <point x="1051" y="0"></point>
      <point x="1035" y="0" type="curve" smooth="yes"></point>
      <point x="769" y="0" type="line" smooth="yes"></point>
      <point x="739" y="0"></point>
      <point x="717" y="12"></point>
      <point x="700" y="37" type="curve"></point>
      <point x="412" y="522" type="line"></point>
    </contour>
  </outline>
</glyph>
<glyph name="S" format="1">
  <advance width="952"></advance>
  <unicode hex="0053"></unicode>
  <outline>
    <contour>
      <point x="508" y="-33" type="curve" smooth="yes"></point>
      <point x="258" y="-33"></point>
      <point x="110" y="90"></point>
      <point x="110" y="90" type="curve"></point>
      <point x="110" y="312" type="line" smooth="yes"></point>
      <point x="110" y="334"></point>
      <point x="128" y="344"></point>
      <point x="147" y="333" type="curve" smooth="yes"></point>
      <point x="215" y="294"></point>
      <point x="362" y="217"></point>
      <point x="464" y="217" type="curve" smooth="yes"></point>
      <point x="542" y="217"></point>
      <point x="576" y="254"></point>
      <point x="576" y="316" type="curve" smooth="yes"></point>
      <point x="576" y="348"></point>
      <point x="574" y="377"></point>
      <point x="485" y="442" type="curve" smooth="yes"></point>
      <point x="251" y="615" type="line" smooth="yes"></point>
      <point x="142" y="696"></point>
      <point x="83" y="819"></point>
      <point x="83" y="925" type="curve" smooth="yes"></point>
      <point x="83" y="1108"></point>
      <point x="209" y="1277"></point>
      <point x="458" y="1277" type="curve" smooth="yes"></point>
      <point x="657" y="1277"></point>
      <point x="808" y="1193"></point>
      <point x="808" y="1187" type="curve" smooth="yes"></point>
      <point x="808" y="978" type="line" smooth="yes"></point>
      <point x="808" y="953"></point>
      <point x="791" y="942"></point>
      <point x="768" y="952" type="curve" smooth="yes"></point>
      <point x="707" y="979"></point>
      <point x="588" y="1026"></point>
      <point x="499" y="1026" type="curve" smooth="yes"></point>
      <point x="396" y="1026"></point>
      <point x="378" y="973"></point>
      <point x="378" y="932" type="curve" smooth="yes"></point>
      <point x="378" y="901"></point>
      <point x="402" y="855"></point>
      <point x="459" y="811" type="curve" smooth="yes"></point>
      <point x="642" y="672" type="line" smooth="yes"></point>
      <point x="793" y="557"></point>
      <point x="863" y="449"></point>
      <point x="863" y="320" type="curve" smooth="yes"></point>
      <point x="863" y="81"></point>
      <point x="698" y="-33"></point>
    </contour>
  </outline>
</glyph>
<glyph name="T" format="1">
  <advance width="1173"></advance>
  <unicode hex="0054"></unicode>
  <outline>
    <contour>
      <point x="1221" y="996" type="curve" smooth="yes"></point>
      <point x="900" y="996" type="line"></point>
      <point x="900" y="44" type="line" smooth="yes"></point>
      <point x="900" y="16"></point>
      <point x="884" y="0"></point>
      <point x="856" y="0" type="curve" smooth="yes"></point>
      <point x="636" y="0" type="line" smooth="yes"></point>
      <point x="608" y="0"></point>
      <point x="592" y="16"></point>
      <point x="592" y="44" type="curve" smooth="yes"></point>
      <point x="592" y="996" type="line"></point>
      <point x="271" y="996" type="line" smooth="yes"></point>
      <point x="243" y="996"></point>
      <point x="227" y="1012"></point>
      <point x="227" y="1040" type="curve" smooth="yes"></point>
      <point x="227" y="1196" type="line" smooth="yes"></point>
      <point x="227" y="1224"></point>
      <point x="243" y="1240"></point>
      <point x="271" y="1240" type="curve" smooth="yes"></point>
      <point x="1221" y="1240" type="line" smooth="yes"></point>
      <point x="1249" y="1240"></point>
      <point x="1265" y="1224"></point>
      <point x="1265" y="1196" type="curve" smooth="yes"></point>
      <point x="1265" y="1040" type="line" smooth="yes"></point>
      <point x="1265" y="1012"></point>
      <point x="1249" y="996"></point>
    </contour>
  </outline>
</glyph>
<glyph name="U" format="1">
  <advance width="1241"></advance>
  <unicode hex="0055"></unicode>
  <outline>
    <contour>
      <point x="620" y="-33" type="curve" smooth="yes"></point>
      <point x="303" y="-33"></point>
      <point x="52" y="142"></point>
      <point x="52" y="493" type="curve" smooth="yes"></point>
      <point x="52" y="1196" type="line" smooth="yes"></point>
      <point x="52" y="1224"></point>
      <point x="68" y="1240"></point>
      <point x="96" y="1240" type="curve" smooth="yes"></point>
      <point x="300" y="1240" type="line" smooth="yes"></point>
      <point x="328" y="1240"></point>
      <point x="344" y="1224"></point>
      <point x="344" y="1196" type="curve" smooth="yes"></point>
      <point x="344" y="500" type="line" smooth="yes"></point>
      <point x="344" y="293"></point>
      <point x="459" y="202"></point>
      <point x="620" y="202" type="curve" smooth="yes"></point>
      <point x="781" y="202"></point>
      <point x="896" y="293"></point>
      <point x="896" y="500" type="curve" smooth="yes"></point>
      <point x="896" y="1196" type="line" smooth="yes"></point>
      <point x="896" y="1224"></point>
      <point x="912" y="1240"></point>
      <point x="940" y="1240" type="curve" smooth="yes"></point>
      <point x="1144" y="1240" type="line" smooth="yes"></point>
      <point x="1172" y="1240"></point>
      <point x="1188" y="1224"></point>
      <point x="1188" y="1196" type="curve" smooth="yes"></point>
      <point x="1188" y="493" type="line" smooth="yes"></point>
      <point x="1188" y="142"></point>
      <point x="937" y="-33"></point>
    </contour>
  </outline>
</glyph>
<glyph name="V" format="1">
  <advance width="1037"></advance>
  <unicode hex="0056"></unicode>
  <outline>
    <contour>
      <point x="484" y="2" type="curve" smooth="yes"></point>
      <point x="-77" y="1200" type="line" smooth="yes"></point>
      <point x="-80" y="1206"></point>
      <point x="-81" y="1211"></point>
      <point x="-81" y="1216" type="curve" smooth="yes"></point>
      <point x="-81" y="1230"></point>
      <point x="-71" y="1240"></point>
      <point x="-52" y="1240" type="curve" smooth="yes"></point>
      <point x="168" y="1240" type="line" smooth="yes"></point>
      <point x="198" y="1240"></point>
      <point x="218" y="1227"></point>
      <point x="230" y="1200" type="curve" smooth="yes"></point>
      <point x="520" y="556" type="line"></point>
      <point x="788" y="1199" type="line" smooth="yes"></point>
      <point x="799" y="1227"></point>
      <point x="819" y="1240"></point>
      <point x="849" y="1240" type="curve" smooth="yes"></point>
      <point x="1076" y="1240" type="line" smooth="yes"></point>
      <point x="1095" y="1240"></point>
      <point x="1106" y="1231"></point>
      <point x="1106" y="1216" type="curve" smooth="yes"></point>
      <point x="1106" y="1211"></point>
      <point x="1104" y="1206"></point>
      <point x="1102" y="1200" type="curve" smooth="yes"></point>
      <point x="562" y="2" type="line" smooth="yes"></point>
      <point x="554" y="-16"></point>
      <point x="538" y="-25"></point>
      <point x="523" y="-25" type="curve" smooth="yes"></point>
      <point x="508" y="-25"></point>
      <point x="492" y="-16"></point>
    </contour>
  </outline>
</glyph>
<glyph name="W" format="1">
  <advance width="1343"></advance>
  <unicode hex="0057"></unicode>
  <outline>
    <contour>
      <point x="331" y="-17" type="curve" smooth="yes"></point>
      <point x="-174" y="1199" type="line" smooth="yes"></point>
      <point x="-176" y="1205"></point>
      <point x="-178" y="1210"></point>
      <point x="-178" y="1215" type="curve" smooth="yes"></point>
      <point x="-178" y="1230"></point>
      <point x="-166" y="1240"></point>
      <point x="-147" y="1240" type="curve" smooth="yes"></point>
      <point x="63" y="1240" type="line" smooth="yes"></point>
      <point x="93" y="1240"></point>
      <point x="112" y="1227"></point>
      <point x="124" y="1199" type="curve" smooth="yes"></point>
      <point x="365" y="624" type="line"></point>
      <point x="642" y="1270" type="line" smooth="yes"></point>
      <point x="647" y="1280"></point>
      <point x="653" y="1285"></point>
      <point x="660" y="1285" type="curve" smooth="yes"></point>
      <point x="667" y="1285"></point>
      <point x="674" y="1280"></point>
      <point x="678" y="1271" type="curve" smooth="yes"></point>
      <point x="978" y="624" type="line"></point>
      <point x="1197" y="1199" type="line" smooth="yes"></point>
      <point x="1208" y="1227"></point>
      <point x="1227" y="1240"></point>
      <point x="1257" y="1240" type="curve" smooth="yes"></point>
      <point x="1474" y="1240" type="line" smooth="yes"></point>
      <point x="1493" y="1240"></point>
      <point x="1504" y="1230"></point>
      <point x="1504" y="1214" type="curve" smooth="yes"></point>
      <point x="1504" y="1209"></point>
      <point x="1504" y="1204"></point>
      <point x="1502" y="1199" type="curve" smooth="yes"></point>
      <point x="1017" y="-17" type="line" smooth="yes"></point>
      <point x="1013" y="-27"></point>
      <point x="1006" y="-33"></point>
      <point x="999" y="-33" type="curve" smooth="yes"></point>
      <point x="993" y="-33"></point>
      <point x="986" y="-28"></point>
      <point x="982" y="-18" type="curve" smooth="yes"></point>
      <point x="669" y="655" type="line"></point>
      <point x="366" y="-18" type="line" smooth="yes"></point>
      <point x="362" y="-28"></point>
      <point x="355" y="-33"></point>
      <point x="348" y="-33" type="curve" smooth="yes"></point>
      <point x="341" y="-33"></point>
      <point x="335" y="-28"></point>
    </contour>
  </outline>
</glyph>
<glyph name="X" format="1">
  <advance width="1207"></advance>
  <unicode hex="0058"></unicode>
  <outline>
    <contour>
      <point x="984" y="0" type="line" smooth="yes"></point>
      <point x="954" y="0"></point>
      <point x="931" y="11"></point>
      <point x="912" y="34" type="curve" smooth="yes"></point>
      <point x="595" y="412" type="line"></point>
      <point x="296" y="35" type="line" smooth="yes"></point>
      <point x="278" y="11"></point>
      <point x="255" y="0"></point>
      <point x="225" y="0" type="curve" smooth="yes"></point>
      <point x="-58" y="0" type="line" smooth="yes"></point>
      <point x="-73" y="0"></point>
      <point x="-81" y="7"></point>
      <point x="-81" y="17" type="curve" smooth="yes"></point>
      <point x="-81" y="22"></point>
      <point x="-79" y="28"></point>
      <point x="-74" y="34" type="curve" smooth="yes"></point>
      <point x="405" y="638" type="line"></point>
      <point x="-70" y="1206" type="line" smooth="yes"></point>
      <point x="-75" y="1212"></point>
      <point x="-77" y="1218"></point>
      <point x="-77" y="1223" type="curve" smooth="yes"></point>
      <point x="-77" y="1233"></point>
      <point x="-69" y="1240"></point>
      <point x="-54" y="1240" type="curve" smooth="yes"></point>
      <point x="210" y="1240" type="line" smooth="yes"></point>
      <point x="240" y="1240"></point>
      <point x="263" y="1229"></point>
      <point x="283" y="1206" type="curve" smooth="yes"></point>
      <point x="578" y="857" type="line"></point>
      <point x="856" y="1206" type="line" smooth="yes"></point>
      <point x="874" y="1229"></point>
      <point x="897" y="1240"></point>
      <point x="927" y="1240" type="curve" smooth="yes"></point>
      <point x="1206" y="1240" type="line" smooth="yes"></point>
      <point x="1229" y="1240"></point>
      <point x="1237" y="1223"></point>
      <point x="1223" y="1205" type="curve" smooth="yes"></point>
      <point x="769" y="632" type="line"></point>
      <point x="1274" y="34" type="line" smooth="yes"></point>
      <point x="1279" y="28"></point>
      <point x="1281" y="22"></point>
      <point x="1281" y="17" type="curve" smooth="yes"></point>
      <point x="1281" y="7"></point>
      <point x="1273" y="0"></point>
      <point x="1258" y="0" type="curve" smooth="yes"></point>
    </contour>
  </outline>
</glyph>
<glyph name="Y" format="1">
  <advance width="986"></advance>
  <unicode hex="0059"></unicode>
  <outline>
    <contour>
      <point x="392" y="0" type="line" smooth="yes"></point>
      <point x="364" y="0"></point>
      <point x="348" y="16"></point>
      <point x="348" y="44" type="curve" smooth="yes"></point>
      <point x="348" y="463" type="line"></point>
      <point x="-91" y="1202" type="line" smooth="yes"></point>
      <point x="-94" y="1208"></point>
      <point x="-96" y="1214"></point>
      <point x="-96" y="1219" type="curve" smooth="yes"></point>
      <point x="-96" y="1232"></point>
      <point x="-86" y="1240"></point>
      <point x="-69" y="1240" type="curve" smooth="yes"></point>
      <point x="167" y="1240" type="line" smooth="yes"></point>
      <point x="197" y="1240"></point>
      <point x="208" y="1228"></point>
      <point x="223" y="1202" type="curve" smooth="yes"></point>
      <point x="503" y="722" type="line"></point>
      <point x="761" y="1201" type="line" smooth="yes"></point>
      <point x="775" y="1228"></point>
      <point x="792" y="1240"></point>
      <point x="822" y="1240" type="curve" smooth="yes"></point>
      <point x="1059" y="1240" type="line" smooth="yes"></point>
      <point x="1076" y="1240"></point>
      <point x="1086" y="1232"></point>
      <point x="1086" y="1219" type="curve" smooth="yes"></point>
      <point x="1086" y="1214"></point>
      <point x="1084" y="1208"></point>
      <point x="1081" y="1202" type="curve" smooth="yes"></point>
      <point x="656" y="459" type="line"></point>
      <point x="656" y="44" type="line" smooth="yes"></point>
      <point x="656" y="16"></point>
      <point x="640" y="0"></point>
      <point x="612" y="0" type="curve" smooth="yes"></point>
    </contour>
  </outline>
</glyph>
<glyph name="Z" format="1">
  <advance width="986"></advance>
  <unicode hex="005A"></unicode>
  <outline>
    <contour>
      <point x="55" y="0" type="line" smooth="yes"></point>
      <point x="37" y="0"></point>
      <point x="27" y="9"></point>
      <point x="27" y="23" type="curve" smooth="yes"></point>
      <point x="27" y="28"></point>
      <point x="28" y="34"></point>
      <point x="31" y="40" type="curve" smooth="yes"></point>
      <point x="488" y="996" type="line"></point>
      <point x="81" y="996" type="line" smooth="yes"></point>
      <point x="53" y="996"></point>
      <point x="37" y="1012"></point>
      <point x="37" y="1040" type="curve" smooth="yes"></point>
      <point x="37" y="1196" type="line" smooth="yes"></point>
      <point x="37" y="1224"></point>
      <point x="53" y="1240"></point>
      <point x="81" y="1240" type="curve" smooth="yes"></point>
      <point x="896" y="1240" type="line" smooth="yes"></point>
      <point x="914" y="1240"></point>
      <point x="925" y="1231"></point>
      <point x="925" y="1217" type="curve" smooth="yes"></point>
      <point x="925" y="1212"></point>
      <point x="924" y="1206"></point>
      <point x="921" y="1200" type="curve" smooth="yes"></point>
      <point x="472" y="244" type="line"></point>
      <point x="869" y="244" type="line" smooth="yes"></point>
      <point x="898" y="244"></point>
      <point x="913" y="228"></point>
      <point x="913" y="200" type="curve" smooth="yes"></point>
      <point x="913" y="44" type="line" smooth="yes"></point>
      <point x="913" y="16"></point>
      <point x="898" y="0"></point>
      <point x="869" y="0" type="curve" smooth="yes"></point>
    </contour>
  </outline>
</glyph>
<glyph name="bracketleft" format="1">
  <advance width="816"></advance>
  <unicode hex="005B"></unicode>
  <outline>
    <contour>
      <point x="797" y="-304" type="line" smooth="yes"></point>
      <point x="797" y="-332"></point>
      <point x="781" y="-348"></point>
      <point x="753" y="-348" type="curve" smooth="yes"></point>
      <point x="168" y="-348" type="line" smooth="yes"></point>
      <point x="140" y="-348"></point>
      <point x="124" y="-332"></point>
      <point x="124" y="-304" type="curve" smooth="yes"></point>
      <point x="124" y="1196" type="line" smooth="yes"></point>
      <point x="124" y="1224"></point>
      <point x="140" y="1240"></point>
      <point x="168" y="1240" type="curve" smooth="yes"></point>
      <point x="753" y="1240" type="line" smooth="yes"></point>
      <point x="781" y="1240"></point>
      <point x="797" y="1224"></point>
      <point x="797" y="1196" type="curve" smooth="yes"></point>
      <point x="797" y="1016" type="line" smooth="yes"></point>
      <point x="797" y="988"></point>
      <point x="781" y="972"></point>
      <point x="753" y="972" type="curve" smooth="yes"></point>
      <point x="432" y="972" type="line"></point>
      <point x="432" y="-80" type="line"></point>
      <point x="753" y="-80" type="line" smooth="yes"></point>
      <point x="781" y="-80"></point>
      <point x="797" y="-96"></point>
      <point x="797" y="-124" type="curve" smooth="yes"></point>
    </contour>
  </outline>
</glyph>
<glyph name="bracketright" format="1">
  <advance width="1020"></advance>
  <unicode hex="005D"></unicode>
  <outline>
    <contour>
      <point x="227" y="-304" type="curve" smooth="yes"></point>
      <point x="227" y="-124" type="line" smooth="yes"></point>
      <point x="227" y="-96"></point>
      <point x="243" y="-80"></point>
      <point x="271" y="-80" type="curve" smooth="yes"></point>
      <point x="592" y="-80" type="line"></point>
      <point x="592" y="972" type="line"></point>
      <point x="271" y="972" type="line" smooth="yes"></point>
      <point x="243" y="972"></point>
      <point x="227" y="988"></point>
      <point x="227" y="1016" type="curve" smooth="yes"></point>
      <point x="227" y="1196" type="line" smooth="yes"></point>
      <point x="227" y="1224"></point>
      <point x="243" y="1240"></point>
      <point x="271" y="1240" type="curve" smooth="yes"></point>
      <point x="856" y="1240" type="line" smooth="yes"></point>
      <point x="884" y="1240"></point>
      <point x="900" y="1224"></point>
      <point x="900" y="1196" type="curve" smooth="yes"></point>
      <point x="900" y="-304" type="line" smooth="yes"></point>
      <point x="900" y="-332"></point>
      <point x="884" y="-348"></point>
      <point x="856" y="-348" type="curve" smooth="yes"></point>
      <point x="271" y="-348" type="line" smooth="yes"></point>
      <point x="243" y="-348"></point>
      <point x="227" y="-332"></point>
    </contour>
  </outline>
</glyph>
<glyph name="underscore" format="1">
  <advance width="1003"></advance>
  <unicode hex="005F"></unicode>
  <outline>
    <contour>
      <point x="271" y="-249" type="line" smooth="yes"></point>
      <point x="243" y="-249"></point>
      <point x="227" y="-233"></point>
      <point x="227" y="-205" type="curve" smooth="yes"></point>
      <point x="227" y="-45" type="line" smooth="yes"></point>
      <point x="227" y="-17"></point>
      <point x="243" y="-1"></point>
      <point x="271" y="-1" type="curve" smooth="yes"></point>
      <point x="976" y="-1" type="line" smooth="yes"></point>
      <point x="1004" y="-1"></point>
      <point x="1020" y="-17"></point>
      <point x="1020" y="-45" type="curve" smooth="yes"></point>
      <point x="1020" y="-205" type="line" smooth="yes"></point>
      <point x="1020" y="-233"></point>
      <point x="1004" y="-249"></point>
      <point x="976" y="-249" type="curve" smooth="yes"></point>
    </contour>
  </outline>
</glyph>
<glyph name="grave" format="1">
  <advance width="680"></advance>
  <unicode hex="0060"></unicode>
  <outline>
    <contour>
      <point x="493" y="50" type="curve" smooth="yes"></point>
      <point x="480" y="50"></point>
      <point x="466" y="56"></point>
      <point x="453" y="70" type="curve" smooth="yes"></point>
      <point x="194" y="348" type="line" smooth="yes"></point>
      <point x="160" y="385"></point>
      <point x="145" y="422"></point>
      <point x="145" y="454" type="curve" smooth="yes"></point>
      <point x="145" y="511"></point>
      <point x="189" y="553"></point>
      <point x="240" y="553" type="curve" smooth="yes"></point>
      <point x="282" y="553"></point>
      <point x="331" y="524"></point>
      <point x="365" y="452" type="curve" smooth="yes"></point>
      <point x="522" y="121" type="line" smooth="yes"></point>
      <point x="527" y="110"></point>
      <point x="529" y="99"></point>
      <point x="529" y="90" type="curve" smooth="yes"></point>
      <point x="529" y="66"></point>
      <point x="513" y="50"></point>
    </contour>
  </outline>
</glyph>
<glyph name="a" format="1">
  <advance width="935"></advance>
  <unicode hex="0061"></unicode>
  <outline>
    <contour>
      <point x="544" y="118" type="curve"></point>
      <point x="496" y="28"></point>
      <point x="394" y="-24"></point>
      <point x="316" y="-24" type="curve" smooth="yes"></point>
      <point x="179" y="-24"></point>
      <point x="54" y="67"></point>
      <point x="54" y="230" type="curve" smooth="yes"></point>
      <point x="54" y="350"></point>
      <point x="172" y="453"></point>
      <point x="404" y="506" type="curve" smooth="yes"></point>
      <point x="504" y="529" type="line"></point>
      <point x="504" y="563" type="line" smooth="yes"></point>
      <point x="504" y="663"></point>
      <point x="457" y="690"></point>
      <point x="396" y="690" type="curve" smooth="yes"></point>
      <point x="321" y="690"></point>
      <point x="230" y="647"></point>
      <point x="174" y="617" type="curve" smooth="yes"></point>
      <point x="166" y="613"></point>
      <point x="159" y="611"></point>
      <point x="152" y="611" type="curve" smooth="yes"></point>
      <point x="138" y="611"></point>
      <point x="127" y="620"></point>
      <point x="120" y="638" type="curve" smooth="yes"></point>
      <point x="73" y="759" type="line" smooth="yes"></point>
      <point x="71" y="765"></point>
      <point x="70" y="770"></point>
      <point x="70" y="775" type="curve" smooth="yes"></point>
      <point x="70" y="791"></point>
      <point x="79" y="805"></point>
      <point x="96" y="814" type="curve" smooth="yes"></point>
      <point x="152" y="847"></point>
      <point x="270" y="900"></point>
      <point x="425" y="900" type="curve" smooth="yes"></point>
      <point x="583" y="900"></point>
      <point x="774" y="825"></point>
      <point x="774" y="602" type="curve" smooth="yes"></point>
      <point x="774" y="326" type="line" smooth="yes"></point>
      <point x="774" y="234"></point>
      <point x="808" y="202"></point>
      <point x="886" y="202" type="curve" smooth="yes"></point>
      <point x="896" y="202"></point>
      <point x="901" y="197"></point>
      <point x="901" y="189" type="curve" smooth="yes"></point>
      <point x="901" y="186"></point>
      <point x="900" y="183"></point>
      <point x="899" y="179" type="curve" smooth="yes"></point>
      <point x="831" y="-10" type="line" smooth="yes"></point>
      <point x="829" y="-15"></point>
      <point x="810" y="-18"></point>
      <point x="810" y="-18" type="curve"></point>
      <point x="768" y="-18"></point>
      <point x="608" y="-4"></point>
    </contour>
    <contour>
      <point x="285" y="248" type="line"></point>
      <point x="291" y="184"></point>
      <point x="336" y="154"></point>
      <point x="389" y="154" type="curve" smooth="yes"></point>
      <point x="436" y="154"></point>
      <point x="490" y="177"></point>
      <point x="529" y="221" type="curve"></point>
      <point x="518" y="412" type="line"></point>
      <point x="426" y="384" type="line" smooth="yes"></point>
      <point x="327" y="354"></point>
      <point x="285" y="310"></point>
      <point x="285" y="257" type="curve" smooth="yes"></point>
    </contour>
  </outline>
</glyph>
<glyph name="b" format="1">
  <advance width="1054"></advance>
  <unicode hex="0062"></unicode>
  <outline>
    <contour>
      <point x="132" y="0" type="line" smooth="yes"></point>
      <point x="104" y="0"></point>
      <point x="88" y="16"></point>
      <point x="88" y="44" type="curve" smooth="yes"></point>
      <point x="88" y="1196" type="line" smooth="yes"></point>
      <point x="88" y="1225"></point>
      <point x="103" y="1242"></point>
      <point x="132" y="1246" type="curve" smooth="yes"></point>
      <point x="324" y="1272" type="line"></point>
      <point x="362" y="1272"></point>
      <point x="368" y="1260"></point>
      <point x="368" y="1233" type="curve" smooth="yes"></point>
      <point x="368" y="825" type="line"></point>
      <point x="427" y="868"></point>
      <point x="504" y="900"></point>
      <point x="603" y="900" type="curve" smooth="yes"></point>
      <point x="826" y="900"></point>
      <point x="988" y="717"></point>
      <point x="988" y="475" type="curve" smooth="yes"></point>
      <point x="988" y="187"></point>
      <point x="823" y="-2"></point>
      <point x="510" y="-2" type="curve" smooth="yes"></point>
      <point x="483" y="-2"></point>
      <point x="455" y="-1"></point>
      <point x="426" y="2" type="curve" smooth="yes"></point>
      <point x="354" y="9" type="line"></point>
      <point x="347" y="3"></point>
      <point x="336" y="0"></point>
      <point x="324" y="0" type="curve" smooth="yes"></point>
    </contour>
    <contour>
      <point x="368" y="181" type="line"></point>
      <point x="390" y="178" type="line" smooth="yes"></point>
      <point x="411" y="175"></point>
      <point x="431" y="174"></point>
      <point x="450" y="174" type="curve" smooth="yes"></point>
      <point x="646" y="174"></point>
      <point x="719" y="305"></point>
      <point x="719" y="449" type="curve" smooth="yes"></point>
      <point x="719" y="579"></point>
      <point x="657" y="690"></point>
      <point x="510" y="690" type="curve" smooth="yes"></point>
      <point x="466" y="690"></point>
      <point x="416" y="677"></point>
      <point x="368" y="659" type="curve"></point>
    </contour>
  </outline>
</glyph>
<glyph name="c" format="1">
  <advance width="969"></advance>
  <unicode hex="0063"></unicode>
  <outline>
    <contour>
      <point x="579" y="-24" type="curve" smooth="yes"></point>
      <point x="281" y="-24"></point>
      <point x="78" y="169"></point>
      <point x="78" y="440" type="curve" smooth="yes"></point>
      <point x="78" y="717"></point>
      <point x="292" y="900"></point>
      <point x="573" y="900" type="curve" smooth="yes"></point>
      <point x="703" y="900"></point>
      <point x="779" y="871"></point>
      <point x="819" y="849" type="curve" smooth="yes"></point>
      <point x="843" y="836"></point>
      <point x="856" y="813"></point>
      <point x="856" y="786" type="curve" smooth="yes"></point>
      <point x="856" y="629" type="line" smooth="yes"></point>
      <point x="856" y="606"></point>
      <point x="840" y="598"></point>
      <point x="822" y="612" type="curve" smooth="yes"></point>
      <point x="780" y="643"></point>
      <point x="703" y="686"></point>
      <point x="588" y="686" type="curve" smooth="yes"></point>
      <point x="439" y="686"></point>
      <point x="353" y="578"></point>
      <point x="353" y="441" type="curve" smooth="yes"></point>
      <point x="353" y="304"></point>
      <point x="442" y="190"></point>
      <point x="600" y="190" type="curve" smooth="yes"></point>
      <point x="706" y="190"></point>
      <point x="761" y="221"></point>
      <point x="818" y="253" type="curve" smooth="yes"></point>
      <point x="839" y="264"></point>
      <point x="856" y="254"></point>
      <point x="856" y="230" type="curve" smooth="yes"></point>
      <point x="856" y="96" type="line" smooth="yes"></point>
      <point x="856" y="66"></point>
      <point x="844" y="47"></point>
      <point x="818" y="33" type="curve" smooth="yes"></point>
      <point x="773" y="8"></point>
      <point x="692" y="-24"></point>
    </contour>
  </outline>
</glyph>
<glyph name="d" format="1">
  <advance width="1054"></advance>
  <unicode hex="0064"></unicode>
  <outline>
    <contour>
      <point x="714" y="0" type="line" smooth="yes"></point>
      <point x="698" y="0"></point>
      <point x="686" y="5"></point>
      <point x="679" y="14" type="curve"></point>
      <point x="610" y="-4"></point>
      <point x="546" y="-12"></point>
      <point x="488" y="-12" type="curve" smooth="yes"></point>
      <point x="206" y="-12"></point>
      <point x="57" y="185"></point>
      <point x="57" y="460" type="curve" smooth="yes"></point>
      <point x="57" y="756"></point>
      <point x="271" y="900"></point>
      <point x="484" y="900" type="curve" smooth="yes"></point>
      <point x="548" y="900"></point>
      <point x="612" y="888"></point>
      <point x="670" y="864" type="curve"></point>
      <point x="670" y="1196" type="line" smooth="yes"></point>
      <point x="670" y="1225"></point>
      <point x="685" y="1242"></point>
      <point x="714" y="1246" type="curve" smooth="yes"></point>
      <point x="906" y="1272" type="line"></point>
      <point x="944" y="1272"></point>
      <point x="950" y="1260"></point>
      <point x="950" y="1233" type="curve" smooth="yes"></point>
      <point x="950" y="44" type="line" smooth="yes"></point>
      <point x="950" y="16"></point>
      <point x="934" y="0"></point>
      <point x="906" y="0" type="curve" smooth="yes"></point>
    </contour>
    <contour>
      <point x="670" y="676" type="line"></point>
      <point x="634" y="686"></point>
      <point x="599" y="690"></point>
      <point x="568" y="690" type="curve" smooth="yes"></point>
      <point x="421" y="690"></point>
      <point x="326" y="597"></point>
      <point x="326" y="455" type="curve" smooth="yes"></point>
      <point x="326" y="316"></point>
      <point x="373" y="187"></point>
      <point x="576" y="187" type="curve" smooth="yes"></point>
      <point x="604" y="187"></point>
      <point x="635" y="189"></point>
      <point x="670" y="194" type="curve"></point>
    </contour>
  </outline>
</glyph>
<glyph name="e" format="1">
  <advance width="969"></advance>
  <unicode hex="0065"></unicode>
  <outline>
    <contour>
      <point x="354" y="541" type="curve"></point>
      <point x="673" y="541" type="line"></point>
      <point x="664" y="642"></point>
      <point x="611" y="710"></point>
      <point x="526" y="710" type="curve" smooth="yes"></point>
      <point x="429" y="710"></point>
      <point x="360" y="640"></point>
    </contour>
    <contour>
      <point x="577" y="-24" type="curve" smooth="yes"></point>
      <point x="250" y="-24"></point>
      <point x="73" y="189"></point>
      <point x="73" y="449" type="curve" smooth="yes"></point>
      <point x="73" y="689"></point>
      <point x="234" y="900"></point>
      <point x="498" y="900" type="curve" smooth="yes"></point>
      <point x="781" y="900"></point>
      <point x="892" y="710"></point>
      <point x="892" y="454" type="curve" smooth="yes"></point>
      <point x="892" y="430" type="line" smooth="yes"></point>
      <point x="892" y="409"></point>
      <point x="880" y="397"></point>
      <point x="860" y="397" type="curve" smooth="yes"></point>
      <point x="352" y="397" type="line"></point>
      <point x="366" y="268"></point>
      <point x="449" y="186"></point>
      <point x="612" y="186" type="curve" smooth="yes"></point>
      <point x="675" y="186"></point>
      <point x="771" y="204"></point>
      <point x="844" y="232" type="curve" smooth="yes"></point>
      <point x="864" y="239"></point>
      <point x="881" y="235"></point>
      <point x="881" y="211" type="curve" smooth="yes"></point>
      <point x="881" y="90" type="line" smooth="yes"></point>
      <point x="881" y="63"></point>
      <point x="867" y="41"></point>
      <point x="842" y="28" type="curve" smooth="yes"></point>
      <point x="781" y="-4"></point>
      <point x="672" y="-24"></point>
    </contour>
  </outline>
</glyph>
<glyph name="f" format="1">
  <advance width="782"></advance>
  <unicode hex="0066"></unicode>
  <outline>
    <contour>
      <point x="439" y="0" type="curve" smooth="yes"></point>
      <point x="250" y="0" type="line" smooth="yes"></point>
      <point x="222" y="0"></point>
      <point x="206" y="16"></point>
      <point x="206" y="44" type="curve" smooth="yes"></point>
      <point x="206" y="684" type="line"></point>
      <point x="112" y="684" type="line" smooth="yes"></point>
      <point x="84" y="684"></point>
      <point x="68" y="700"></point>
      <point x="68" y="728" type="curve" smooth="yes"></point>
      <point x="68" y="832" type="line" smooth="yes"></point>
      <point x="68" y="860"></point>
      <point x="84" y="876"></point>
      <point x="112" y="876" type="curve" smooth="yes"></point>
      <point x="203" y="876" type="line"></point>
      <point x="203" y="945" type="line" smooth="yes"></point>
      <point x="203" y="1155"></point>
      <point x="306" y="1269"></point>
      <point x="525" y="1269" type="curve" smooth="yes"></point>
      <point x="587" y="1269"></point>
      <point x="652" y="1263"></point>
      <point x="691" y="1250" type="curve" smooth="yes"></point>
      <point x="718" y="1242"></point>
      <point x="733" y="1222"></point>
      <point x="733" y="1194" type="curve" smooth="yes"></point>
      <point x="733" y="1096" type="line" smooth="yes"></point>
      <point x="733" y="1070"></point>
      <point x="720" y="1061"></point>
      <point x="695" y="1065" type="curve" smooth="yes"></point>
      <point x="661" y="1070"></point>
      <point x="631" y="1073"></point>
      <point x="606" y="1073" type="curve" smooth="yes"></point>
      <point x="521" y="1073"></point>
      <point x="483" y="1041"></point>
      <point x="483" y="951" type="curve" smooth="yes"></point>
      <point x="483" y="876" type="line"></point>
      <point x="625" y="876" type="line" smooth="yes"></point>
      <point x="653" y="876"></point>
      <point x="669" y="860"></point>
      <point x="669" y="832" type="curve" smooth="yes"></point>
      <point x="669" y="728" type="line" smooth="yes"></point>
      <point x="669" y="700"></point>
      <point x="653" y="684"></point>
      <point x="625" y="684" type="curve" smooth="yes"></point>
      <point x="483" y="684" type="line"></point>
      <point x="483" y="44" type="line" smooth="yes"></point>
      <point x="483" y="16"></point>
      <point x="467" y="0"></point>
    </contour>
  </outline>
</glyph>
<glyph name="g" format="1">
  <advance width="986"></advance>
  <unicode hex="0067"></unicode>
  <outline>
    <contour>
      <point x="461" y="374" type="curve" smooth="yes"></point>
      <point x="557" y="374"></point>
      <point x="622" y="438"></point>
      <point x="622" y="540" type="curve" smooth="yes"></point>
      <point x="622" y="645"></point>
      <point x="556" y="713"></point>
      <point x="460" y="713" type="curve" smooth="yes"></point>
      <point x="363" y="713"></point>
      <point x="293" y="640"></point>
      <point x="293" y="537" type="curve" smooth="yes"></point>
      <point x="293" y="440"></point>
      <point x="353" y="374"></point>
    </contour>
    <contour>
      <point x="477" y="-396" type="curve" smooth="yes"></point>
      <point x="611" y="-396"></point>
      <point x="725" y="-342"></point>
      <point x="725" y="-271" type="curve" smooth="yes"></point>
      <point x="725" y="-213"></point>
      <point x="685" y="-185"></point>
      <point x="554" y="-185" type="curve" smooth="yes"></point>
      <point x="350" y="-185" type="line"></point>
      <point x="286" y="-219"></point>
      <point x="261" y="-258"></point>
      <point x="261" y="-298" type="curve" smooth="yes"></point>
      <point x="261" y="-362"></point>
      <point x="342" y="-396"></point>
    </contour>
    <contour>
      <point x="475" y="185" type="curve" smooth="yes"></point>
      <point x="455" y="185"></point>
      <point x="436" y="186"></point>
      <point x="416" y="188" type="curve"></point>
      <point x="404" y="154"></point>
      <point x="397" y="122"></point>
      <point x="397" y="93" type="curve" smooth="yes"></point>
      <point x="397" y="43"></point>
      <point x="420" y="13"></point>
      <point x="508" y="13" type="curve" smooth="yes"></point>
      <point x="597" y="13" type="line" smooth="yes"></point>
      <point x="874" y="13"></point>
      <point x="975" y="-70"></point>
      <point x="975" y="-238" type="curve" smooth="yes"></point>
      <point x="975" y="-443"></point>
      <point x="770" y="-588"></point>
      <point x="476" y="-588" type="curve" smooth="yes"></point>
      <point x="203" y="-588"></point>
      <point x="37" y="-497"></point>
      <point x="37" y="-329" type="curve" smooth="yes"></point>
      <point x="37" y="-219"></point>
      <point x="103" y="-137"></point>
      <point x="238" y="-90" type="curve"></point>
      <point x="162" y="-64"></point>
      <point x="124" y="-9"></point>
      <point x="124" y="43" type="curve" smooth="yes"></point>
      <point x="124" y="104"></point>
      <point x="166" y="176"></point>
      <point x="235" y="240" type="curve"></point>
      <point x="131" y="294"></point>
      <point x="55" y="389"></point>
      <point x="55" y="531" type="curve" smooth="yes"></point>
      <point x="55" y="748"></point>
      <point x="219" y="900"></point>
      <point x="455" y="900" type="curve" smooth="yes"></point>
      <point x="546" y="900"></point>
      <point x="625" y="880"></point>
      <point x="695" y="840" type="curve"></point>
      <point x="947" y="897" type="line" smooth="yes"></point>
      <point x="951" y="898"></point>
      <point x="955" y="898"></point>
      <point x="958" y="898" type="curve" smooth="yes"></point>
      <point x="978" y="898"></point>
      <point x="993" y="887"></point>
      <point x="996" y="861" type="curve" smooth="yes"></point>
      <point x="1008" y="756" type="line" smooth="yes"></point>
      <point x="1009" y="752"></point>
      <point x="1009" y="748"></point>
      <point x="1009" y="744" type="curve" smooth="yes"></point>
      <point x="1009" y="719"></point>
      <point x="997" y="708"></point>
      <point x="973" y="707" type="curve" smooth="yes"></point>
      <point x="788" y="698" type="line"></point>
      <point x="830" y="647"></point>
      <point x="845" y="591"></point>
      <point x="845" y="535" type="curve" smooth="yes"></point>
      <point x="845" y="316"></point>
      <point x="702" y="185"></point>
    </contour>
  </outline>
</glyph>
<glyph name="h" format="1">
  <advance width="1105"></advance>
  <unicode hex="0068"></unicode>
  <outline>
    <contour>
      <point x="132" y="0" type="line" smooth="yes"></point>
      <point x="104" y="0"></point>
      <point x="88" y="16"></point>
      <point x="88" y="44" type="curve" smooth="yes"></point>
      <point x="88" y="1196" type="line" smooth="yes"></point>
      <point x="88" y="1225"></point>
      <point x="103" y="1242"></point>
      <point x="132" y="1246" type="curve" smooth="yes"></point>
      <point x="324" y="1272" type="line"></point>
      <point x="362" y="1272"></point>
      <point x="368" y="1260"></point>
      <point x="368" y="1233" type="curve" smooth="yes"></point>
      <point x="368" y="779" type="line"></point>
      <point x="457" y="860"></point>
      <point x="559" y="900"></point>
      <point x="673" y="900" type="curve" smooth="yes"></point>
      <point x="860" y="900"></point>
      <point x="1010" y="771"></point>
      <point x="1010" y="580" type="curve" smooth="yes"></point>
      <point x="1010" y="44" type="line" smooth="yes"></point>
      <point x="1010" y="16"></point>
      <point x="994" y="0"></point>
      <point x="966" y="0" type="curve" smooth="yes"></point>
      <point x="774" y="0" type="line" smooth="yes"></point>
      <point x="746" y="0"></point>
      <point x="730" y="16"></point>
      <point x="730" y="44" type="curve" smooth="yes"></point>
      <point x="730" y="559" type="line" smooth="yes"></point>
      <point x="730" y="647"></point>
      <point x="677" y="695"></point>
      <point x="608" y="695" type="curve" smooth="yes"></point>
      <point x="560" y="695"></point>
      <point x="477" y="691"></point>
      <point x="368" y="594" type="curve"></point>
      <point x="368" y="44" type="line" smooth="yes"></point>
      <point x="368" y="16"></point>
      <point x="352" y="0"></point>
      <point x="324" y="0" type="curve" smooth="yes"></point>
    </contour>
  </outline>
</glyph>
<glyph name="i" format="1">
  <advance width="629"></advance>
  <unicode hex="0069"></unicode>
  <outline>
    <contour>
      <point x="312" y="1000" type="curve" smooth="yes"></point>
      <point x="206" y="1000"></point>
      <point x="143" y="1068"></point>
      <point x="143" y="1152" type="curve" smooth="yes"></point>
      <point x="143" y="1233"></point>
      <point x="205" y="1300"></point>
      <point x="312" y="1300" type="curve" smooth="yes"></point>
      <point x="419" y="1300"></point>
      <point x="480" y="1232"></point>
      <point x="480" y="1152" type="curve" smooth="yes"></point>
      <point x="480" y="1069"></point>
      <point x="418" y="1000"></point>
    </contour>
    <contour>
      <point x="216" y="0" type="line" smooth="yes"></point>
      <point x="188" y="0"></point>
      <point x="172" y="16"></point>
      <point x="172" y="44" type="curve" smooth="yes"></point>
      <point x="172" y="832" type="line" smooth="yes"></point>
      <point x="172" y="860"></point>
      <point x="188" y="876"></point>
      <point x="216" y="876" type="curve" smooth="yes"></point>
      <point x="408" y="876" type="line" smooth="yes"></point>
      <point x="436" y="876"></point>
      <point x="452" y="860"></point>
      <point x="452" y="832" type="curve" smooth="yes"></point>
      <point x="452" y="44" type="line" smooth="yes"></point>
      <point x="452" y="16"></point>
      <point x="436" y="0"></point>
      <point x="408" y="0" type="curve" smooth="yes"></point>
    </contour>
  </outline>
</glyph>
<glyph name="j" format="1">
  <advance width="697"></advance>
  <unicode hex="006A"></unicode>
  <outline>
    <contour>
      <point x="400" y="1000" type="curve" smooth="yes"></point>
      <point x="294" y="1000"></point>
      <point x="231" y="1068"></point>
      <point x="231" y="1152" type="curve" smooth="yes"></point>
      <point x="231" y="1233"></point>
      <point x="293" y="1300"></point>
      <point x="400" y="1300" type="curve" smooth="yes"></point>
      <point x="507" y="1300"></point>
      <point x="568" y="1232"></point>
      <point x="568" y="1152" type="curve" smooth="yes"></point>
      <point x="568" y="1069"></point>
      <point x="506" y="1000"></point>
    </contour>
    <contour>
      <point x="143" y="-401" type="curve" smooth="yes"></point>
      <point x="140" y="-401"></point>
      <point x="138" y="-402"></point>
      <point x="135" y="-402" type="curve" smooth="yes"></point>
      <point x="111" y="-402"></point>
      <point x="95" y="-385"></point>
      <point x="89" y="-361" type="curve" smooth="yes"></point>
      <point x="59" y="-218" type="line" smooth="yes"></point>
      <point x="58" y="-216"></point>
      <point x="58" y="-213"></point>
      <point x="58" y="-211" type="curve" smooth="yes"></point>
      <point x="58" y="-202"></point>
      <point x="63" y="-195"></point>
      <point x="74" y="-193" type="curve" smooth="yes"></point>
      <point x="95" y="-188" type="line" smooth="yes"></point>
      <point x="174" y="-169"></point>
      <point x="252" y="-141"></point>
      <point x="252" y="-42" type="curve" smooth="yes"></point>
      <point x="252" y="39" type="line"></point>
      <point x="252" y="44" type="line"></point>
      <point x="252" y="832" type="line" smooth="yes"></point>
      <point x="252" y="860"></point>
      <point x="268" y="876"></point>
      <point x="296" y="876" type="curve" smooth="yes"></point>
      <point x="488" y="876" type="line" smooth="yes"></point>
      <point x="516" y="876"></point>
      <point x="532" y="860"></point>
      <point x="532" y="832" type="curve" smooth="yes"></point>
      <point x="532" y="206" type="line"></point>
      <point x="532" y="-55" type="line" smooth="yes"></point>
      <point x="532" y="-177"></point>
      <point x="476" y="-358"></point>
    </contour>
  </outline>
</glyph>
<glyph name="k" format="1">
  <advance width="1037"></advance>
  <unicode hex="006B"></unicode>
  <outline>
    <contour>
      <point x="127" y="0" type="line" smooth="yes"></point>
      <point x="99" y="0"></point>
      <point x="83" y="16"></point>
      <point x="83" y="44" type="curve" smooth="yes"></point>
      <point x="83" y="1196" type="line" smooth="yes"></point>
      <point x="83" y="1225"></point>
      <point x="98" y="1242"></point>
      <point x="127" y="1246" type="curve" smooth="yes"></point>
      <point x="319" y="1272" type="line"></point>
      <point x="357" y="1272"></point>
      <point x="363" y="1260"></point>
      <point x="363" y="1233" type="curve" smooth="yes"></point>
      <point x="363" y="505" type="line"></point>
      <point x="619" y="842" type="line"></point>
      <point x="638" y="864"></point>
      <point x="662" y="875"></point>
      <point x="692" y="875" type="curve" smooth="yes"></point>
      <point x="948" y="875" type="line" smooth="yes"></point>
      <point x="970" y="875"></point>
      <point x="977" y="858"></point>
      <point x="963" y="842" type="curve" smooth="yes"></point>
      <point x="644" y="471" type="line"></point>
      <point x="1012" y="33" type="line" smooth="yes"></point>
      <point x="1017" y="27"></point>
      <point x="1019" y="22"></point>
      <point x="1019" y="17" type="curve" smooth="yes"></point>
      <point x="1019" y="8"></point>
      <point x="1011" y="0"></point>
      <point x="997" y="0" type="curve" smooth="yes"></point>
      <point x="733" y="0" type="line" smooth="yes"></point>
      <point x="703" y="0"></point>
      <point x="678" y="12"></point>
      <point x="661" y="34" type="curve" smooth="yes"></point>
      <point x="417" y="354" type="line"></point>
      <point x="363" y="295" type="line"></point>
      <point x="363" y="44" type="line" smooth="yes"></point>
      <point x="363" y="16"></point>
      <point x="347" y="0"></point>
      <point x="319" y="0" type="curve" smooth="yes"></point>
    </contour>
  </outline>
</glyph>
<glyph name="l" format="1">
  <advance width="646"></advance>
  <unicode hex="006C"></unicode>
  <outline>
    <contour>
      <point x="225" y="0" type="line" smooth="yes"></point>
      <point x="197" y="0"></point>
      <point x="181" y="16"></point>
      <point x="181" y="44" type="curve" smooth="yes"></point>
      <point x="181" y="1196" type="line" smooth="yes"></point>
      <point x="181" y="1225"></point>
      <point x="196" y="1242"></point>
      <point x="225" y="1246" type="curve" smooth="yes"></point>
      <point x="417" y="1272" type="line"></point>
      <point x="455" y="1272"></point>
      <point x="461" y="1260"></point>
      <point x="461" y="1233" type="curve" smooth="yes"></point>
      <point x="461" y="44" type="line" smooth="yes"></point>
      <point x="461" y="16"></point>
      <point x="445" y="0"></point>
      <point x="417" y="0" type="curve" smooth="yes"></point>
    </contour>
  </outline>
</glyph>
<glyph name="m" format="1">
  <advance width="1649"></advance>
  <unicode hex="006D"></unicode>
  <outline>
    <contour>
      <point x="120" y="0" type="line" smooth="yes"></point>
      <point x="93" y="0"></point>
      <point x="78" y="16"></point>
      <point x="78" y="44" type="curve" smooth="yes"></point>
      <point x="78" y="832" type="line" smooth="yes"></point>
      <point x="78" y="860"></point>
      <point x="93" y="876"></point>
      <point x="120" y="876" type="curve" smooth="yes"></point>
      <point x="303" y="876" type="line" smooth="yes"></point>
      <point x="330" y="876"></point>
      <point x="345" y="860"></point>
      <point x="345" y="832" type="curve" smooth="yes"></point>
      <point x="345" y="779" type="line"></point>
      <point x="430" y="860"></point>
      <point x="529" y="900"></point>
      <point x="637" y="900" type="curve" smooth="yes"></point>
      <point x="760" y="900"></point>
      <point x="866" y="838"></point>
      <point x="920" y="737" type="curve"></point>
      <point x="1015" y="845"></point>
      <point x="1126" y="900"></point>
      <point x="1252" y="900" type="curve" smooth="yes"></point>
      <point x="1431" y="900"></point>
      <point x="1573" y="771"></point>
      <point x="1573" y="580" type="curve" smooth="yes"></point>
      <point x="1573" y="44" type="line" smooth="yes"></point>
      <point x="1573" y="16"></point>
      <point x="1558" y="0"></point>
      <point x="1531" y="0" type="curve" smooth="yes"></point>
      <point x="1348" y="0" type="line" smooth="yes"></point>
      <point x="1321" y="0"></point>
      <point x="1306" y="16"></point>
      <point x="1306" y="44" type="curve" smooth="yes"></point>
      <point x="1306" y="559" type="line" smooth="yes"></point>
      <point x="1306" y="647"></point>
      <point x="1255" y="695"></point>
      <point x="1189" y="695" type="curve"></point>
      <point x="1190" y="695"></point>
      <point x="1191" y="696"></point>
      <point x="1191" y="696" type="curve" smooth="yes"></point>
      <point x="1191" y="697"></point>
      <point x="1189" y="697"></point>
      <point x="1186" y="697" type="curve" smooth="yes"></point>
      <point x="1162" y="697"></point>
      <point x="1046" y="675"></point>
      <point x="958" y="592" type="curve"></point>
      <point x="958" y="580" type="line"></point>
      <point x="958" y="44" type="line" smooth="yes"></point>
      <point x="958" y="16"></point>
      <point x="943" y="0"></point>
      <point x="916" y="0" type="curve" smooth="yes"></point>
      <point x="733" y="0" type="line" smooth="yes"></point>
      <point x="706" y="0"></point>
      <point x="691" y="16"></point>
      <point x="691" y="44" type="curve" smooth="yes"></point>
      <point x="691" y="559" type="line" smooth="yes"></point>
      <point x="691" y="647"></point>
      <point x="640" y="695"></point>
      <point x="574" y="695" type="curve" smooth="yes"></point>
      <point x="528" y="695"></point>
      <point x="449" y="691"></point>
      <point x="345" y="594" type="curve"></point>
      <point x="345" y="44" type="line" smooth="yes"></point>
      <point x="345" y="16"></point>
      <point x="330" y="0"></point>
      <point x="303" y="0" type="curve" smooth="yes"></point>
    </contour>
  </outline>
</glyph>
<glyph name="n" format="1">
  <advance width="1088"></advance>
  <unicode hex="006E"></unicode>
  <outline>
    <contour>
      <point x="132" y="0" type="line" smooth="yes"></point>
      <point x="104" y="0"></point>
      <point x="88" y="16"></point>
      <point x="88" y="44" type="curve" smooth="yes"></point>
      <point x="88" y="832" type="line" smooth="yes"></point>
      <point x="88" y="860"></point>
      <point x="104" y="876"></point>
      <point x="132" y="876" type="curve" smooth="yes"></point>
      <point x="324" y="876" type="line" smooth="yes"></point>
      <point x="352" y="876"></point>
      <point x="368" y="860"></point>
      <point x="368" y="832" type="curve" smooth="yes"></point>
      <point x="368" y="783" type="line"></point>
      <point x="456" y="861"></point>
      <point x="557" y="900"></point>
      <point x="669" y="900" type="curve" smooth="yes"></point>
      <point x="856" y="900"></point>
      <point x="1006" y="771"></point>
      <point x="1006" y="580" type="curve" smooth="yes"></point>
      <point x="1006" y="44" type="line" smooth="yes"></point>
      <point x="1006" y="16"></point>
      <point x="990" y="0"></point>
      <point x="962" y="0" type="curve" smooth="yes"></point>
      <point x="770" y="0" type="line" smooth="yes"></point>
      <point x="742" y="0"></point>
      <point x="726" y="16"></point>
      <point x="726" y="44" type="curve" smooth="yes"></point>
      <point x="726" y="559" type="line" smooth="yes"></point>
      <point x="726" y="647"></point>
      <point x="673" y="695"></point>
      <point x="604" y="695" type="curve" smooth="yes"></point>
      <point x="556" y="695"></point>
      <point x="475" y="691"></point>
      <point x="368" y="598" type="curve"></point>
      <point x="368" y="44" type="line" smooth="yes"></point>
      <point x="368" y="16"></point>
      <point x="352" y="0"></point>
      <point x="324" y="0" type="curve" smooth="yes"></point>
    </contour>
  </outline>
</glyph>
<glyph name="o" format="1">
  <advance width="1088"></advance>
  <unicode hex="006F"></unicode>
  <outline>
    <contour>
      <point x="541" y="-24" type="curve" smooth="yes"></point>
      <point x="266" y="-24"></point>
      <point x="47" y="159"></point>
      <point x="47" y="439" type="curve" smooth="yes"></point>
      <point x="47" y="717"></point>
      <point x="266" y="900"></point>
      <point x="541" y="900" type="curve" smooth="yes"></point>
      <point x="816" y="900"></point>
      <point x="1035" y="717"></point>
      <point x="1035" y="439" type="curve" smooth="yes"></point>
      <point x="1035" y="159"></point>
      <point x="816" y="-24"></point>
    </contour>
    <contour>
      <point x="541" y="186" type="curve" smooth="yes"></point>
      <point x="690" y="186"></point>
      <point x="767" y="302"></point>
      <point x="767" y="438" type="curve" smooth="yes"></point>
      <point x="767" y="573"></point>
      <point x="692" y="690"></point>
      <point x="541" y="690" type="curve" smooth="yes"></point>
      <point x="390" y="690"></point>
      <point x="315" y="573"></point>
      <point x="315" y="438" type="curve" smooth="yes"></point>
      <point x="315" y="302"></point>
      <point x="392" y="186"></point>
    </contour>
  </outline>
</glyph>
<glyph name="p" format="1">
  <advance width="1054"></advance>
  <unicode hex="0070"></unicode>
  <outline>
    <contour>
      <point x="378" y="833" type="curve" smooth="yes"></point>
      <point x="378" y="824" type="line"></point>
      <point x="437" y="868"></point>
      <point x="514" y="900"></point>
      <point x="614" y="900" type="curve" smooth="yes"></point>
      <point x="837" y="900"></point>
      <point x="999" y="717"></point>
      <point x="999" y="475" type="curve" smooth="yes"></point>
      <point x="999" y="187"></point>
      <point x="834" y="-2"></point>
      <point x="521" y="-2" type="curve" smooth="yes"></point>
      <point x="494" y="-2"></point>
      <point x="466" y="-1"></point>
      <point x="437" y="2" type="curve" smooth="yes"></point>
      <point x="378" y="8" type="line"></point>
      <point x="378" y="-320" type="line" smooth="yes"></point>
      <point x="378" y="-348"></point>
      <point x="362" y="-364"></point>
      <point x="334" y="-364" type="curve" smooth="yes"></point>
      <point x="146" y="-364" type="line" smooth="yes"></point>
      <point x="118" y="-364"></point>
      <point x="102" y="-348"></point>
      <point x="102" y="-320" type="curve" smooth="yes"></point>
      <point x="102" y="832" type="line" smooth="yes"></point>
      <point x="102" y="860"></point>
      <point x="118" y="876"></point>
      <point x="146" y="876" type="curve" smooth="yes"></point>
      <point x="335" y="876" type="line" smooth="yes"></point>
      <point x="362" y="876"></point>
      <point x="378" y="860"></point>
    </contour>
    <contour>
      <point x="378" y="659" type="curve"></point>
      <point x="378" y="181" type="line"></point>
      <point x="401" y="178" type="line" smooth="yes"></point>
      <point x="422" y="175"></point>
      <point x="442" y="174"></point>
      <point x="461" y="174" type="curve" smooth="yes"></point>
      <point x="657" y="174"></point>
      <point x="730" y="305"></point>
      <point x="730" y="449" type="curve" smooth="yes"></point>
      <point x="730" y="579"></point>
      <point x="668" y="690"></point>
      <point x="521" y="690" type="curve" smooth="yes"></point>
      <point x="476" y="690"></point>
      <point x="427" y="677"></point>
    </contour>
  </outline>
</glyph>
<glyph name="q" format="1">
  <advance width="1054"></advance>
  <unicode hex="0071"></unicode>
  <outline>
    <contour>
      <point x="538" y="200" type="curve" smooth="yes"></point>
      <point x="641" y="200"></point>
      <point x="677" y="207"></point>
      <point x="678" y="207" type="curve"></point>
      <point x="678" y="676" type="line"></point>
      <point x="677" y="676"></point>
      <point x="590" y="689"></point>
      <point x="566" y="689" type="curve" smooth="yes"></point>
      <point x="428" y="689"></point>
      <point x="333" y="616"></point>
      <point x="333" y="437" type="curve" smooth="yes"></point>
      <point x="333" y="297"></point>
      <point x="416" y="200"></point>
    </contour>
    <contour>
      <point x="722" y="-364" type="line" smooth="yes"></point>
      <point x="694" y="-364"></point>
      <point x="678" y="-348"></point>
      <point x="678" y="-320" type="curve" smooth="yes"></point>
      <point x="678" y="7" type="line"></point>
      <point x="615" y="-18"></point>
      <point x="563" y="-24"></point>
      <point x="495" y="-24" type="curve" smooth="yes"></point>
      <point x="272" y="-24"></point>
      <point x="63" y="160"></point>
      <point x="63" y="418" type="curve" smooth="yes"></point>
      <point x="63" y="731"></point>
      <point x="255" y="900"></point>
      <point x="504" y="900" type="curve" smooth="yes"></point>
      <point x="591" y="900"></point>
      <point x="656" y="863"></point>
      <point x="678" y="849" type="curve"></point>
      <point x="678" y="850" type="line" smooth="yes"></point>
      <point x="678" y="867"></point>
      <point x="687" y="876"></point>
      <point x="704" y="876" type="curve" smooth="yes"></point>
      <point x="909" y="876" type="line" smooth="yes"></point>
      <point x="937" y="876"></point>
      <point x="953" y="860"></point>
      <point x="953" y="832" type="curve" smooth="yes"></point>
      <point x="953" y="-320" type="line" smooth="yes"></point>
      <point x="953" y="-348"></point>
      <point x="937" y="-364"></point>
      <point x="909" y="-364" type="curve" smooth="yes"></point>
    </contour>
  </outline>
</glyph>
<glyph name="r" format="1">
  <advance width="850"></advance>
  <unicode hex="0072"></unicode>
  <outline>
    <contour>
      <point x="158" y="0" type="line" smooth="yes"></point>
      <point x="130" y="0"></point>
      <point x="114" y="16"></point>
      <point x="114" y="44" type="curve" smooth="yes"></point>
      <point x="114" y="832" type="line" smooth="yes"></point>
      <point x="114" y="860"></point>
      <point x="130" y="876"></point>
      <point x="158" y="876" type="curve" smooth="yes"></point>
      <point x="350" y="876" type="line" smooth="yes"></point>
      <point x="378" y="876"></point>
      <point x="394" y="860"></point>
      <point x="394" y="832" type="curve" smooth="yes"></point>
      <point x="394" y="704" type="line"></point>
      <point x="484" y="840"></point>
      <point x="572" y="887"></point>
      <point x="619" y="887" type="curve" smooth="yes"></point>
      <point x="690" y="887"></point>
      <point x="753" y="850"></point>
      <point x="818" y="783" type="curve" smooth="yes"></point>
      <point x="830" y="771"></point>
      <point x="836" y="757"></point>
      <point x="836" y="743" type="curve" smooth="yes"></point>
      <point x="836" y="733"></point>
      <point x="833" y="723"></point>
      <point x="827" y="713" type="curve" smooth="yes"></point>
      <point x="746" y="567" type="line" smooth="yes"></point>
      <point x="732" y="543"></point>
      <point x="713" y="541"></point>
      <point x="694" y="560" type="curve" smooth="yes"></point>
      <point x="656" y="598"></point>
      <point x="614" y="621"></point>
      <point x="572" y="621" type="curve" smooth="yes"></point>
      <point x="479" y="621"></point>
      <point x="404" y="542"></point>
      <point x="394" y="387" type="curve"></point>
      <point x="394" y="44" type="line" smooth="yes"></point>
      <point x="394" y="16"></point>
      <point x="378" y="0"></point>
      <point x="350" y="0" type="curve" smooth="yes"></point>
    </contour>
  </outline>
</glyph>
<glyph name="s" format="1">
  <advance width="833"></advance>
  <unicode hex="0073"></unicode>
  <outline>
    <contour>
      <point x="403" y="178" type="curve" smooth="yes"></point>
      <point x="473" y="178"></point>
      <point x="491" y="206"></point>
      <point x="491" y="234" type="curve" smooth="yes"></point>
      <point x="491" y="266"></point>
      <point x="471" y="284"></point>
      <point x="396" y="316" type="curve" smooth="yes"></point>
      <point x="287" y="363" type="line" smooth="yes"></point>
      <point x="156" y="419"></point>
      <point x="99" y="492"></point>
      <point x="99" y="624" type="curve" smooth="yes"></point>
      <point x="99" y="769"></point>
      <point x="198" y="900"></point>
      <point x="425" y="900" type="curve" smooth="yes"></point>
      <point x="571" y="900"></point>
      <point x="664" y="861"></point>
      <point x="716" y="833" type="curve" smooth="yes"></point>
      <point x="734" y="823"></point>
      <point x="743" y="812"></point>
      <point x="743" y="790" type="curve" smooth="yes"></point>
      <point x="743" y="637" type="line" smooth="yes"></point>
      <point x="743" y="613"></point>
      <point x="728" y="602"></point>
      <point x="706" y="616" type="curve" smooth="yes"></point>
      <point x="647" y="653"></point>
      <point x="539" y="694"></point>
      <point x="445" y="694" type="curve" smooth="yes"></point>
      <point x="385" y="694"></point>
      <point x="364" y="668"></point>
      <point x="364" y="635" type="curve" smooth="yes"></point>
      <point x="364" y="599"></point>
      <point x="383" y="583"></point>
      <point x="479" y="542" type="curve" smooth="yes"></point>
      <point x="564" y="506" type="line" smooth="yes"></point>
      <point x="697" y="450"></point>
      <point x="752" y="373"></point>
      <point x="752" y="242" type="curve" smooth="yes"></point>
      <point x="752" y="83"></point>
      <point x="627" y="-24"></point>
      <point x="419" y="-24" type="curve" smooth="yes"></point>
      <point x="304" y="-24"></point>
      <point x="215" y="11"></point>
      <point x="180" y="31" type="curve" smooth="yes"></point>
      <point x="159" y="43"></point>
      <point x="147" y="57"></point>
      <point x="147" y="81" type="curve" smooth="yes"></point>
      <point x="147" y="224" type="line" smooth="yes"></point>
      <point x="147" y="245"></point>
      <point x="160" y="250"></point>
      <point x="177" y="239" type="curve" smooth="yes"></point>
      <point x="214" y="215"></point>
      <point x="314" y="178"></point>
    </contour>
  </outline>
</glyph>
<glyph name="t" format="1">
  <advance width="850"></advance>
  <unicode hex="0074"></unicode>
  <outline>
    <contour>
      <point x="484" y="-24" type="curve" smooth="yes"></point>
      <point x="334" y="-24"></point>
      <point x="180" y="61"></point>
      <point x="180" y="221" type="curve" smooth="yes"></point>
      <point x="180" y="660" type="line"></point>
      <point x="105" y="660" type="line" smooth="yes"></point>
      <point x="83" y="660"></point>
      <point x="68" y="672"></point>
      <point x="68" y="690" type="curve" smooth="yes"></point>
      <point x="68" y="700"></point>
      <point x="73" y="712"></point>
      <point x="84" y="726" type="curve" smooth="yes"></point>
      <point x="404" y="1104" type="line" smooth="yes"></point>
      <point x="413" y="1114"></point>
      <point x="422" y="1119"></point>
      <point x="430" y="1119" type="curve" smooth="yes"></point>
      <point x="442" y="1119"></point>
      <point x="450" y="1107"></point>
      <point x="450" y="1092" type="curve" smooth="yes"></point>
      <point x="450" y="875" type="line"></point>
      <point x="674" y="875" type="line" smooth="yes"></point>
      <point x="703" y="875"></point>
      <point x="718" y="859"></point>
      <point x="718" y="831" type="curve" smooth="yes"></point>
      <point x="718" y="704" type="line" smooth="yes"></point>
      <point x="718" y="676"></point>
      <point x="703" y="660"></point>
      <point x="674" y="660" type="curve" smooth="yes"></point>
      <point x="450" y="660" type="line"></point>
      <point x="450" y="296" type="line" smooth="yes"></point>
      <point x="450" y="228"></point>
      <point x="492" y="207"></point>
      <point x="546" y="207" type="curve" smooth="yes"></point>
      <point x="603" y="207"></point>
      <point x="675" y="222"></point>
      <point x="723" y="241" type="curve" smooth="yes"></point>
      <point x="746" y="251"></point>
      <point x="763" y="239"></point>
      <point x="763" y="214" type="curve" smooth="yes"></point>
      <point x="763" y="87" type="line" smooth="yes"></point>
      <point x="763" y="63"></point>
      <point x="747" y="39"></point>
      <point x="727" y="28" type="curve" smooth="yes"></point>
      <point x="684" y="3"></point>
      <point x="602" y="-24"></point>
    </contour>
  </outline>
</glyph>
<glyph name="u" format="1">
  <advance width="1088"></advance>
  <unicode hex="0075"></unicode>
  <outline>
    <contour>
      <point x="948" y="876" type="line" smooth="yes"></point>
      <point x="976" y="876"></point>
      <point x="992" y="860"></point>
      <point x="992" y="832" type="curve" smooth="yes"></point>
      <point x="992" y="44" type="line" smooth="yes"></point>
      <point x="992" y="16"></point>
      <point x="976" y="0"></point>
      <point x="948" y="0" type="curve" smooth="yes"></point>
      <point x="756" y="0" type="line" smooth="yes"></point>
      <point x="728" y="0"></point>
      <point x="712" y="16"></point>
      <point x="712" y="44" type="curve" smooth="yes"></point>
      <point x="712" y="86" type="line"></point>
      <point x="626" y="13"></point>
      <point x="528" y="-24"></point>
      <point x="420" y="-24" type="curve" smooth="yes"></point>
      <point x="233" y="-24"></point>
      <point x="83" y="105"></point>
      <point x="83" y="296" type="curve" smooth="yes"></point>
      <point x="83" y="832" type="line" smooth="yes"></point>
      <point x="83" y="860"></point>
      <point x="99" y="876"></point>
      <point x="127" y="876" type="curve" smooth="yes"></point>
      <point x="319" y="876" type="line" smooth="yes"></point>
      <point x="347" y="876"></point>
      <point x="363" y="860"></point>
      <point x="363" y="832" type="curve" smooth="yes"></point>
      <point x="363" y="317" type="line" smooth="yes"></point>
      <point x="363" y="229"></point>
      <point x="416" y="181"></point>
      <point x="485" y="181" type="curve"></point>
      <point x="484" y="181"></point>
      <point x="484" y="180"></point>
      <point x="484" y="180" type="curve"></point>
      <point x="484" y="180"></point>
      <point x="485" y="179"></point>
      <point x="488" y="179" type="curve" smooth="yes"></point>
      <point x="511" y="179"></point>
      <point x="625" y="197"></point>
      <point x="712" y="270" type="curve"></point>
      <point x="712" y="832" type="line" smooth="yes"></point>
      <point x="712" y="860"></point>
      <point x="728" y="876"></point>
      <point x="756" y="876" type="curve" smooth="yes"></point>
    </contour>
  </outline>
</glyph>
<glyph name="v" format="1">
  <advance width="1003"></advance>
  <unicode hex="0076"></unicode>
  <outline>
    <contour>
      <point x="477" y="12" type="curve" smooth="yes"></point>
      <point x="21" y="837" type="line" smooth="yes"></point>
      <point x="18" y="843"></point>
      <point x="16" y="849"></point>
      <point x="16" y="854" type="curve" smooth="yes"></point>
      <point x="16" y="867"></point>
      <point x="27" y="876"></point>
      <point x="44" y="876" type="curve" smooth="yes"></point>
      <point x="263" y="876" type="line" smooth="yes"></point>
      <point x="293" y="876"></point>
      <point x="312" y="863"></point>
      <point x="325" y="836" type="curve" smooth="yes"></point>
      <point x="499" y="464" type="line"></point>
      <point x="669" y="836" type="line" smooth="yes"></point>
      <point x="681" y="863"></point>
      <point x="702" y="876"></point>
      <point x="732" y="876" type="curve" smooth="yes"></point>
      <point x="954" y="876" type="line" smooth="yes"></point>
      <point x="971" y="876"></point>
      <point x="981" y="867"></point>
      <point x="981" y="854" type="curve" smooth="yes"></point>
      <point x="981" y="849"></point>
      <point x="979" y="843"></point>
      <point x="976" y="837" type="curve" smooth="yes"></point>
      <point x="520" y="12" type="line" smooth="yes"></point>
      <point x="514" y="2"></point>
      <point x="507" y="-4"></point>
      <point x="499" y="-4" type="curve" smooth="yes"></point>
      <point x="491" y="-4"></point>
      <point x="483" y="2"></point>
    </contour>
  </outline>
</glyph>
<glyph name="w" format="1">
  <advance width="1207"></advance>
  <unicode hex="0077"></unicode>
  <outline>
    <contour>
      <point x="360" y="22" type="line" smooth="yes"></point>
      <point x="355" y="12"></point>
      <point x="348" y="7"></point>
      <point x="341" y="7" type="curve" smooth="yes"></point>
      <point x="334" y="7"></point>
      <point x="327" y="12"></point>
      <point x="322" y="23" type="curve" smooth="yes"></point>
      <point x="-25" y="836" type="line" smooth="yes"></point>
      <point x="-27" y="842"></point>
      <point x="-29" y="846"></point>
      <point x="-29" y="851" type="curve" smooth="yes"></point>
      <point x="-29" y="866"></point>
      <point x="-18" y="876"></point>
      <point x="0" y="876" type="curve" smooth="yes"></point>
      <point x="195" y="876" type="line" smooth="yes"></point>
      <point x="225" y="876"></point>
      <point x="244" y="863"></point>
      <point x="254" y="835" type="curve" smooth="yes"></point>
      <point x="378" y="493" type="line"></point>
      <point x="586" y="863" type="line" smooth="yes"></point>
      <point x="592" y="873"></point>
      <point x="599" y="878"></point>
      <point x="607" y="878" type="curve" smooth="yes"></point>
      <point x="615" y="878"></point>
      <point x="622" y="872"></point>
      <point x="628" y="862" type="curve" smooth="yes"></point>
      <point x="834" y="481" type="line"></point>
      <point x="966" y="835" type="line" smooth="yes"></point>
      <point x="976" y="863"></point>
      <point x="995" y="876"></point>
      <point x="1025" y="876" type="curve" smooth="yes"></point>
      <point x="1205" y="876" type="line" smooth="yes"></point>
      <point x="1224" y="876"></point>
      <point x="1236" y="866"></point>
      <point x="1236" y="851" type="curve" smooth="yes"></point>
      <point x="1236" y="846"></point>
      <point x="1234" y="841"></point>
      <point x="1232" y="835" type="curve" smooth="yes"></point>
      <point x="891" y="23" type="line" smooth="yes"></point>
      <point x="887" y="12"></point>
      <point x="879" y="7"></point>
      <point x="872" y="7" type="curve" smooth="yes"></point>
      <point x="865" y="7"></point>
      <point x="859" y="11"></point>
      <point x="854" y="21" type="curve" smooth="yes"></point>
      <point x="607" y="485" type="line"></point>
    </contour>
  </outline>
</glyph>
<glyph name="x" format="1">
  <advance width="1071"></advance>
  <unicode hex="0078"></unicode>
  <outline>
    <contour>
      <point x="14" y="0" type="line" smooth="yes"></point>
      <point x="0" y="0"></point>
      <point x="-8" y="7"></point>
      <point x="-8" y="17" type="curve" smooth="yes"></point>
      <point x="-8" y="22"></point>
      <point x="-6" y="27"></point>
      <point x="-1" y="33" type="curve" smooth="yes"></point>
      <point x="360" y="450" type="line"></point>
      <point x="8" y="842" type="line" smooth="yes"></point>
      <point x="-6" y="858"></point>
      <point x="1" y="875"></point>
      <point x="23" y="875" type="curve" smooth="yes"></point>
      <point x="266" y="875" type="line" smooth="yes"></point>
      <point x="296" y="875"></point>
      <point x="318" y="864"></point>
      <point x="337" y="841" type="curve" smooth="yes"></point>
      <point x="526" y="609" type="line"></point>
      <point x="707" y="840" type="line" smooth="yes"></point>
      <point x="725" y="864"></point>
      <point x="749" y="875"></point>
      <point x="779" y="875" type="curve" smooth="yes"></point>
      <point x="1035" y="875" type="line" smooth="yes"></point>
      <point x="1057" y="875"></point>
      <point x="1064" y="859"></point>
      <point x="1050" y="842" type="curve" smooth="yes"></point>
      <point x="703" y="440" type="line"></point>
      <point x="1065" y="33" type="line" smooth="yes"></point>
      <point x="1070" y="27"></point>
      <point x="1073" y="21"></point>
      <point x="1073" y="16" type="curve" smooth="yes"></point>
      <point x="1073" y="7"></point>
      <point x="1065" y="0"></point>
      <point x="1051" y="0" type="curve" smooth="yes"></point>
      <point x="809" y="0" type="line" smooth="yes"></point>
      <point x="779" y="0"></point>
      <point x="756" y="11"></point>
      <point x="737" y="34" type="curve" smooth="yes"></point>
      <point x="536" y="281" type="line"></point>
      <point x="346" y="35" type="line" smooth="yes"></point>
      <point x="328" y="11"></point>
      <point x="306" y="0"></point>
      <point x="276" y="0" type="curve" smooth="yes"></point>
    </contour>
  </outline>
</glyph>
<glyph name="y" format="1">
  <advance width="1003"></advance>
  <unicode hex="0079"></unicode>
  <outline>
    <contour>
      <point x="183" y="-244" type="line" smooth="yes"></point>
      <point x="159" y="-244"></point>
      <point x="148" y="-227"></point>
      <point x="159" y="-204" type="curve" smooth="yes"></point>
      <point x="369" y="219" type="line"></point>
      <point x="11" y="838" type="line" smooth="yes"></point>
      <point x="7" y="844"></point>
      <point x="6" y="850"></point>
      <point x="6" y="855" type="curve" smooth="yes"></point>
      <point x="6" y="867"></point>
      <point x="16" y="876"></point>
      <point x="33" y="876" type="curve" smooth="yes"></point>
      <point x="254" y="876" type="line" smooth="yes"></point>
      <point x="284" y="876"></point>
      <point x="305" y="863"></point>
      <point x="319" y="837" type="curve" smooth="yes"></point>
      <point x="522" y="465" type="line"></point>
      <point x="703" y="836" type="line" smooth="yes"></point>
      <point x="716" y="863"></point>
      <point x="736" y="876"></point>
      <point x="766" y="876" type="curve" smooth="yes"></point>
      <point x="970" y="876" type="line" smooth="yes"></point>
      <point x="988" y="876"></point>
      <point x="998" y="866"></point>
      <point x="998" y="853" type="curve" smooth="yes"></point>
      <point x="998" y="848"></point>
      <point x="997" y="843"></point>
      <point x="994" y="837" type="curve" smooth="yes"></point>
      <point x="456" y="-205" type="line" smooth="yes"></point>
      <point x="442" y="-231"></point>
      <point x="422" y="-244"></point>
      <point x="392" y="-244" type="curve" smooth="yes"></point>
    </contour>
  </outline>
</glyph>
<glyph name="z" format="1">
  <advance width="935"></advance>
  <unicode hex="007A"></unicode>
  <outline>
    <contour>
      <point x="104" y="0" type="line" smooth="yes"></point>
      <point x="87" y="0"></point>
      <point x="78" y="9"></point>
      <point x="78" y="21" type="curve" smooth="yes"></point>
      <point x="78" y="26"></point>
      <point x="79" y="32"></point>
      <point x="83" y="38" type="curve" smooth="yes"></point>
      <point x="467" y="669" type="line"></point>
      <point x="133" y="669" type="line" smooth="yes"></point>
      <point x="105" y="669"></point>
      <point x="89" y="685"></point>
      <point x="89" y="713" type="curve" smooth="yes"></point>
      <point x="89" y="832" type="line" smooth="yes"></point>
      <point x="89" y="860"></point>
      <point x="105" y="876"></point>
      <point x="133" y="876" type="curve" smooth="yes"></point>
      <point x="818" y="876" type="line" smooth="yes"></point>
      <point x="835" y="876"></point>
      <point x="846" y="868"></point>
      <point x="846" y="855" type="curve" smooth="yes"></point>
      <point x="846" y="850"></point>
      <point x="844" y="844"></point>
      <point x="841" y="838" type="curve" smooth="yes"></point>
      <point x="487" y="215" type="line"></point>
      <point x="787" y="215" type="line" smooth="yes"></point>
      <point x="815" y="215"></point>
      <point x="831" y="199"></point>
      <point x="831" y="171" type="curve" smooth="yes"></point>
      <point x="831" y="44" type="line" smooth="yes"></point>
      <point x="831" y="16"></point>
      <point x="815" y="0"></point>
      <point x="787" y="0" type="curve" smooth="yes"></point>
    </contour>
  </outline>
</glyph>
<glyph name="sterling" format="1">
  <advance width="936"></advance>
  <unicode hex="00A3"></unicode>
  <outline>
    <contour>
      <point x="642" y="-34" type="curve" smooth="yes"></point>
      <point x="547" y="-34"></point>
      <point x="422" y="14"></point>
      <point x="321" y="83" type="curve"></point>
      <point x="285" y="35" type="line" smooth="yes"></point>
      <point x="268" y="11"></point>
      <point x="245" y="0"></point>
      <point x="215" y="0" type="curve" smooth="yes"></point>
      <point x="31" y="0" type="line" smooth="yes"></point>
      <point x="8" y="0"></point>
      <point x="0" y="17"></point>
      <point x="13" y="35" type="curve" smooth="yes"></point>
      <point x="124" y="188"></point>
      <point x="190" y="315"></point>
      <point x="190" y="425" type="curve" smooth="yes"></point>
      <point x="190" y="458"></point>
      <point x="185" y="493"></point>
      <point x="176" y="527" type="curve"></point>
      <point x="45" y="527" type="line" smooth="yes"></point>
      <point x="17" y="527"></point>
      <point x="1" y="543"></point>
      <point x="1" y="571" type="curve" smooth="yes"></point>
      <point x="1" y="673" type="line" smooth="yes"></point>
      <point x="1" y="701"></point>
      <point x="17" y="717"></point>
      <point x="45" y="717" type="curve" smooth="yes"></point>
      <point x="105" y="717" type="line"></point>
      <point x="72" y="794"></point>
      <point x="42" y="868"></point>
      <point x="42" y="924" type="curve" smooth="yes"></point>
      <point x="42" y="1168"></point>
      <point x="248" y="1274"></point>
      <point x="488" y="1274" type="curve" smooth="yes"></point>
      <point x="616" y="1274"></point>
      <point x="753" y="1228"></point>
      <point x="843" y="1149" type="curve" smooth="yes"></point>
      <point x="855" y="1139"></point>
      <point x="861" y="1126"></point>
      <point x="861" y="1112" type="curve" smooth="yes"></point>
      <point x="861" y="1102"></point>
      <point x="858" y="1093"></point>
      <point x="852" y="1084" type="curve" smooth="yes"></point>
      <point x="767" y="952" type="line" smooth="yes"></point>
      <point x="759" y="940"></point>
      <point x="748" y="933"></point>
      <point x="737" y="933" type="curve" smooth="yes"></point>
      <point x="728" y="933"></point>
      <point x="719" y="937"></point>
      <point x="711" y="945" type="curve" smooth="yes"></point>
      <point x="670" y="985"></point>
      <point x="618" y="1030"></point>
      <point x="529" y="1030" type="curve" smooth="yes"></point>
      <point x="436" y="1030"></point>
      <point x="363" y="974"></point>
      <point x="363" y="889" type="curve" smooth="yes"></point>
      <point x="363" y="835"></point>
      <point x="388" y="778"></point>
      <point x="416" y="717" type="curve"></point>
      <point x="673" y="717" type="line" smooth="yes"></point>
      <point x="701" y="717"></point>
      <point x="717" y="701"></point>
      <point x="717" y="673" type="curve" smooth="yes"></point>
      <point x="717" y="571" type="line" smooth="yes"></point>
      <point x="717" y="543"></point>
      <point x="701" y="527"></point>
      <point x="673" y="527" type="curve" smooth="yes"></point>
      <point x="490" y="527" type="line"></point>
      <point x="498" y="497"></point>
      <point x="502" y="466"></point>
      <point x="502" y="433" type="curve" smooth="yes"></point>
      <point x="502" y="374"></point>
      <point x="474" y="309"></point>
      <point x="432" y="241" type="curve"></point>
      <point x="483" y="212"></point>
      <point x="542" y="195"></point>
      <point x="599" y="195" type="curve" smooth="yes"></point>
      <point x="667" y="195"></point>
      <point x="691" y="226"></point>
      <point x="700" y="258" type="curve" smooth="yes"></point>
      <point x="709" y="292"></point>
      <point x="723" y="302"></point>
      <point x="758" y="302" type="curve" smooth="yes"></point>
      <point x="896" y="302" type="line" smooth="yes"></point>
      <point x="921" y="302"></point>
      <point x="936" y="286"></point>
      <point x="936" y="262" type="curve" smooth="yes"></point>
      <point x="936" y="79"></point>
      <point x="820" y="-34"></point>
    </contour>
  </outline>
</glyph>
<glyph name="yen" format="1">
  <advance width="1183"></advance>
  <unicode hex="00A5"></unicode>
  <outline>
    <contour>
      <point x="489" y="0" type="line" smooth="yes"></point>
      <point x="461" y="0"></point>
      <point x="445" y="16"></point>
      <point x="445" y="44" type="curve" smooth="yes"></point>
      <point x="445" y="354" type="line"></point>
      <point x="144" y="354" type="line" smooth="yes"></point>
      <point x="116" y="354"></point>
      <point x="100" y="370"></point>
      <point x="100" y="398" type="curve" smooth="yes"></point>
      <point x="100" y="478" type="line" smooth="yes"></point>
      <point x="100" y="506"></point>
      <point x="116" y="522"></point>
      <point x="144" y="522" type="curve" smooth="yes"></point>
      <point x="410" y="522" type="line"></point>
      <point x="334" y="649" type="line"></point>
      <point x="134" y="649" type="line" smooth="yes"></point>
      <point x="106" y="649"></point>
      <point x="90" y="665"></point>
      <point x="90" y="693" type="curve" smooth="yes"></point>
      <point x="90" y="773" type="line" smooth="yes"></point>
      <point x="90" y="801"></point>
      <point x="106" y="817"></point>
      <point x="134" y="817" type="curve" smooth="yes"></point>
      <point x="235" y="817" type="line"></point>
      <point x="5" y="1203" type="line" smooth="yes"></point>
      <point x="1" y="1209"></point>
      <point x="0" y="1215"></point>
      <point x="0" y="1220" type="curve" smooth="yes"></point>
      <point x="0" y="1232"></point>
      <point x="10" y="1241"></point>
      <point x="27" y="1241" type="curve" smooth="yes"></point>
      <point x="248" y="1241" type="line" smooth="yes"></point>
      <point x="278" y="1241"></point>
      <point x="299" y="1229"></point>
      <point x="314" y="1203" type="curve" smooth="yes"></point>
      <point x="600" y="707" type="line"></point>
      <point x="864" y="1202" type="line" smooth="yes"></point>
      <point x="878" y="1228"></point>
      <point x="899" y="1241"></point>
      <point x="929" y="1241" type="curve" smooth="yes"></point>
      <point x="1156" y="1241" type="line" smooth="yes"></point>
      <point x="1173" y="1241"></point>
      <point x="1183" y="1233"></point>
      <point x="1183" y="1220" type="curve" smooth="yes"></point>
      <point x="1183" y="1215"></point>
      <point x="1181" y="1209"></point>
      <point x="1178" y="1203" type="curve" smooth="yes"></point>
      <point x="958" y="817" type="line"></point>
      <point x="1053" y="817" type="line" smooth="yes"></point>
      <point x="1081" y="817"></point>
      <point x="1097" y="801"></point>
      <point x="1097" y="773" type="curve" smooth="yes"></point>
      <point x="1097" y="693" type="line" smooth="yes"></point>
      <point x="1097" y="665"></point>
      <point x="1081" y="649"></point>
      <point x="1053" y="649" type="curve" smooth="yes"></point>
      <point x="862" y="649" type="line"></point>
      <point x="789" y="522" type="line"></point>
      <point x="1043" y="522" type="line" smooth="yes"></point>
      <point x="1071" y="522"></point>
      <point x="1087" y="506"></point>
      <point x="1087" y="478" type="curve" smooth="yes"></point>
      <point x="1087" y="398" type="line" smooth="yes"></point>
      <point x="1087" y="370"></point>
      <point x="1071" y="354"></point>
      <point x="1043" y="354" type="curve" smooth="yes"></point>
      <point x="753" y="354" type="line"></point>
      <point x="753" y="44" type="line" smooth="yes"></point>
      <point x="753" y="16"></point>
      <point x="737" y="0"></point>
      <point x="709" y="0" type="curve" smooth="yes"></point>
    </contour>
  </outline>
</glyph>
<glyph name="dieresis" format="1">
  <advance width="781"></advance>
  <unicode hex="00A8"></unicode>
  <outline>
    <contour>
      <point x="632" y="-16" type="curve" smooth="yes"></point>
      <point x="538" y="-16"></point>
      <point x="482" y="56"></point>
      <point x="482" y="130" type="curve" smooth="yes"></point>
      <point x="482" y="202"></point>
      <point x="537" y="277"></point>
      <point x="632" y="277" type="curve" smooth="yes"></point>
      <point x="727" y="277"></point>
      <point x="781" y="201"></point>
      <point x="781" y="130" type="curve" smooth="yes"></point>
      <point x="781" y="57"></point>
      <point x="726" y="-16"></point>
    </contour>
    <contour>
      <point x="150" y="-16" type="curve" smooth="yes"></point>
      <point x="56" y="-16"></point>
      <point x="0" y="56"></point>
      <point x="0" y="130" type="curve" smooth="yes"></point>
      <point x="0" y="202"></point>
      <point x="55" y="277"></point>
      <point x="150" y="277" type="curve" smooth="yes"></point>
      <point x="245" y="277"></point>
      <point x="299" y="201"></point>
      <point x="299" y="130" type="curve" smooth="yes"></point>
      <point x="299" y="57"></point>
      <point x="245" y="-16"></point>
    </contour>
  </outline>
</glyph>
<glyph name="guillemotleft" format="1">
  <advance width="835"></advance>
  <unicode hex="00AB"></unicode>
  <outline>
    <contour>
      <point x="795" y="156" type="curve" smooth="yes"></point>
      <point x="781" y="156"></point>
      <point x="766" y="162"></point>
      <point x="757" y="169" type="curve" smooth="yes"></point>
      <point x="453" y="401" type="line"></point>
      <point x="400" y="434"></point>
      <point x="373" y="480"></point>
      <point x="373" y="526" type="curve" smooth="yes"></point>
      <point x="373" y="572"></point>
      <point x="401" y="619"></point>
      <point x="453" y="651" type="curve"></point>
      <point x="758" y="883" type="line" smooth="yes"></point>
      <point x="767" y="890"></point>
      <point x="781" y="895"></point>
      <point x="795" y="895" type="curve" smooth="yes"></point>
      <point x="819" y="895"></point>
      <point x="835" y="879"></point>
      <point x="835" y="859" type="curve" smooth="yes"></point>
      <point x="835" y="846"></point>
      <point x="829" y="832"></point>
      <point x="815" y="819" type="curve"></point>
      <point x="606" y="526" type="line"></point>
      <point x="815" y="233" type="line"></point>
      <point x="829" y="220"></point>
      <point x="835" y="206"></point>
      <point x="835" y="193" type="curve" smooth="yes"></point>
      <point x="835" y="173"></point>
      <point x="819" y="156"></point>
    </contour>
    <contour>
      <point x="422" y="156" type="curve" smooth="yes"></point>
      <point x="408" y="156"></point>
      <point x="393" y="162"></point>
      <point x="384" y="169" type="curve" smooth="yes"></point>
      <point x="80" y="401" type="line"></point>
      <point x="27" y="434"></point>
      <point x="0" y="480"></point>
      <point x="0" y="526" type="curve" smooth="yes"></point>
      <point x="0" y="572"></point>
      <point x="28" y="619"></point>
      <point x="80" y="651" type="curve"></point>
      <point x="385" y="883" type="line" smooth="yes"></point>
      <point x="394" y="890"></point>
      <point x="408" y="895"></point>
      <point x="422" y="895" type="curve" smooth="yes"></point>
      <point x="446" y="895"></point>
      <point x="462" y="879"></point>
      <point x="462" y="859" type="curve" smooth="yes"></point>
      <point x="462" y="846"></point>
      <point x="456" y="832"></point>
      <point x="442" y="819" type="curve"></point>
      <point x="233" y="526" type="line"></point>
      <point x="442" y="233" type="line"></point>
      <point x="456" y="220"></point>
      <point x="462" y="206"></point>
      <point x="462" y="193" type="curve" smooth="yes"></point>
      <point x="462" y="173"></point>
      <point x="446" y="156"></point>
    </contour>
  </outline>
</glyph>
<glyph name="acute" format="1">
  <advance width="384"></advance>
  <unicode hex="00B4"></unicode>
  <outline>
    <contour>
      <point x="37" y="50" type="curve" smooth="yes"></point>
      <point x="17" y="50"></point>
      <point x="0" y="66"></point>
      <point x="0" y="90" type="curve" smooth="yes"></point>
      <point x="0" y="99"></point>
      <point x="3" y="110"></point>
      <point x="8" y="121" type="curve" smooth="yes"></point>
      <point x="165" y="452" type="line" smooth="yes"></point>
      <point x="199" y="524"></point>
      <point x="248" y="553"></point>
      <point x="290" y="553" type="curve" smooth="yes"></point>
      <point x="341" y="553"></point>
      <point x="384" y="511"></point>
      <point x="384" y="454" type="curve" smooth="yes"></point>
      <point x="384" y="422"></point>
      <point x="370" y="385"></point>
      <point x="336" y="348" type="curve" smooth="yes"></point>
      <point x="77" y="70" type="line" smooth="yes"></point>
      <point x="64" y="56"></point>
      <point x="50" y="50"></point>
    </contour>
  </outline>
</glyph>
<glyph name="cedilla" format="1">
  <advance width="254"></advance>
  <unicode hex="00B8"></unicode>
  <outline>
    <contour>
      <point x="210" y="-354" type="line"></point>
      <point x="95" y="-342"></point>
      <point x="0" y="-271"></point>
      <point x="0" y="-201" type="curve" smooth="yes"></point>
      <point x="0" y="-150"></point>
      <point x="32" y="-100"></point>
      <point x="136" y="-70" type="curve"></point>
      <point x="136" y="-42" type="line" smooth="yes"></point>
      <point x="136" y="-14"></point>
      <point x="152" y="1"></point>
      <point x="180" y="1" type="curve" smooth="yes"></point>
      <point x="182" y="1" type="line" smooth="yes"></point>
      <point x="210" y="1"></point>
      <point x="225" y="-14"></point>
      <point x="225" y="-42" type="curve" smooth="yes"></point>
      <point x="225" y="-70" type="line" smooth="yes"></point>
      <point x="225" y="-103"></point>
      <point x="214" y="-119"></point>
      <point x="182" y="-129" type="curve" smooth="yes"></point>
      <point x="144" y="-141"></point>
      <point x="128" y="-160"></point>
      <point x="128" y="-181" type="curve" smooth="yes"></point>
      <point x="128" y="-217"></point>
      <point x="171" y="-256"></point>
      <point x="225" y="-275" type="curve" smooth="yes"></point>
      <point x="245" y="-282"></point>
      <point x="254" y="-292"></point>
      <point x="254" y="-309" type="curve" smooth="yes"></point>
      <point x="254" y="-313"></point>
      <point x="254" y="-317"></point>
      <point x="253" y="-322" type="curve" smooth="yes"></point>
      <point x="249" y="-342"></point>
      <point x="235" y="-354"></point>
      <point x="216" y="-354" type="curve" smooth="yes"></point>
    </contour>
  </outline>
</glyph>
<glyph name="guillemotright" format="1">
  <advance width="835"></advance>
  <unicode hex="00BB"></unicode>
  <outline>
    <contour>
      <point x="40" y="895" type="curve" smooth="yes"></point>
      <point x="54" y="895"></point>
      <point x="69" y="889"></point>
      <point x="78" y="882" type="curve" smooth="yes"></point>
      <point x="382" y="650" type="line"></point>
      <point x="435" y="617"></point>
      <point x="462" y="571"></point>
      <point x="462" y="525" type="curve" smooth="yes"></point>
      <point x="462" y="479"></point>
      <point x="434" y="432"></point>
      <point x="382" y="400" type="curve"></point>
      <point x="77" y="168" type="line" smooth="yes"></point>
      <point x="68" y="161"></point>
      <point x="54" y="156"></point>
      <point x="40" y="156" type="curve" smooth="yes"></point>
      <point x="16" y="156"></point>
      <point x="0" y="172"></point>
      <point x="0" y="192" type="curve" smooth="yes"></point>
      <point x="0" y="205"></point>
      <point x="6" y="219"></point>
      <point x="20" y="232" type="curve"></point>
      <point x="229" y="525" type="line"></point>
      <point x="20" y="818" type="line"></point>
      <point x="6" y="831"></point>
      <point x="0" y="845"></point>
      <point x="0" y="858" type="curve" smooth="yes"></point>
      <point x="0" y="878"></point>
      <point x="16" y="895"></point>
    </contour>
    <contour>
      <point x="413" y="895" type="curve" smooth="yes"></point>
      <point x="427" y="895"></point>
      <point x="442" y="889"></point>
      <point x="451" y="882" type="curve" smooth="yes"></point>
      <point x="755" y="650" type="line"></point>
      <point x="808" y="617"></point>
      <point x="835" y="571"></point>
      <point x="835" y="525" type="curve" smooth="yes"></point>
      <point x="835" y="479"></point>
      <point x="807" y="432"></point>
      <point x="755" y="400" type="curve"></point>
      <point x="450" y="168" type="line" smooth="yes"></point>
      <point x="441" y="161"></point>
      <point x="427" y="156"></point>
      <point x="413" y="156" type="curve" smooth="yes"></point>
      <point x="389" y="156"></point>
      <point x="373" y="172"></point>
      <point x="373" y="192" type="curve" smooth="yes"></point>
      <point x="373" y="205"></point>
      <point x="379" y="219"></point>
      <point x="393" y="232" type="curve"></point>
      <point x="602" y="525" type="line"></point>
      <point x="393" y="818" type="line"></point>
      <point x="379" y="831"></point>
      <point x="373" y="845"></point>
      <point x="373" y="858" type="curve" smooth="yes"></point>
      <point x="373" y="878"></point>
      <point x="389" y="895"></point>
    </contour>
  </outline>
</glyph>
<glyph name="questiondown" format="1">
  <advance width="756"></advance>
  <unicode hex="00BF"></unicode>
  <outline>
    <contour>
      <point x="388" y="-387" type="curve" smooth="yes"></point>
      <point x="138" y="-387"></point>
      <point x="0" y="-255"></point>
      <point x="0" y="-60" type="curve" smooth="yes"></point>
      <point x="0" y="69"></point>
      <point x="80" y="212"></point>
      <point x="377" y="449" type="curve" smooth="yes"></point>
      <point x="400" y="467"></point>
      <point x="426" y="476"></point>
      <point x="455" y="476" type="curve" smooth="yes"></point>
      <point x="579" y="476" type="line" smooth="yes"></point>
      <point x="601" y="476"></point>
      <point x="608" y="460"></point>
      <point x="594" y="443" type="curve" smooth="yes"></point>
      <point x="349" y="160"></point>
      <point x="302" y="78"></point>
      <point x="302" y="-6" type="curve" smooth="yes"></point>
      <point x="302" y="-84"></point>
      <point x="347" y="-128"></point>
      <point x="423" y="-128" type="curve" smooth="yes"></point>
      <point x="492" y="-128"></point>
      <point x="582" y="-89"></point>
      <point x="633" y="-64" type="curve" smooth="yes"></point>
      <point x="641" y="-60"></point>
      <point x="649" y="-58"></point>
      <point x="656" y="-58" type="curve" smooth="yes"></point>
      <point x="671" y="-58"></point>
      <point x="682" y="-67"></point>
      <point x="690" y="-85" type="curve" smooth="yes"></point>
      <point x="752" y="-224" type="line" smooth="yes"></point>
      <point x="755" y="-231"></point>
      <point x="756" y="-238"></point>
      <point x="756" y="-244" type="curve" smooth="yes"></point>
      <point x="756" y="-258"></point>
      <point x="749" y="-271"></point>
      <point x="734" y="-279" type="curve" smooth="yes"></point>
      <point x="671" y="-315"></point>
      <point x="528" y="-387"></point>
    </contour>
    <contour>
      <point x="524" y="905" type="curve" smooth="yes"></point>
      <point x="630" y="905"></point>
      <point x="693" y="824"></point>
      <point x="693" y="740" type="curve" smooth="yes"></point>
      <point x="693" y="659"></point>
      <point x="631" y="575"></point>
      <point x="524" y="575" type="curve" smooth="yes"></point>
      <point x="417" y="575"></point>
      <point x="356" y="660"></point>
      <point x="356" y="740" type="curve" smooth="yes"></point>
      <point x="356" y="823"></point>
      <point x="418" y="905"></point>
    </contour>
  </outline>
</glyph>
<glyph name="Agrave" format="1">
  <advance width="1188"></advance>
  <unicode hex="00C0"></unicode>
  <outline>
    <contour>
      <point x="485" y="474" type="line"></point>
      <point x="697" y="474" type="line"></point>
      <point x="586" y="737" type="line"></point>
    </contour>
    <contour>
      <point x="594" y="1378" type="curve" smooth="yes"></point>
      <point x="581" y="1378"></point>
      <point x="567" y="1384"></point>
      <point x="554" y="1398" type="curve" smooth="yes"></point>
      <point x="295" y="1676" type="line" smooth="yes"></point>
      <point x="261" y="1713"></point>
      <point x="246" y="1750"></point>
      <point x="246" y="1782" type="curve" smooth="yes"></point>
      <point x="246" y="1839"></point>
      <point x="290" y="1881"></point>
      <point x="341" y="1881" type="curve" smooth="yes"></point>
      <point x="383" y="1881"></point>
      <point x="432" y="1852"></point>
      <point x="466" y="1780" type="curve" smooth="yes"></point>
      <point x="623" y="1449" type="line" smooth="yes"></point>
      <point x="628" y="1438"></point>
      <point x="630" y="1427"></point>
      <point x="630" y="1418" type="curve" smooth="yes"></point>
      <point x="630" y="1394"></point>
      <point x="614" y="1378"></point>
    </contour>
    <contour>
      <point x="30" y="0" type="line" smooth="yes"></point>
      <point x="11" y="0"></point>
      <point x="0" y="10"></point>
      <point x="0" y="24" type="curve" smooth="yes"></point>
      <point x="0" y="29"></point>
      <point x="1" y="34"></point>
      <point x="4" y="40" type="curve" smooth="yes"></point>
      <point x="565" y="1271" type="line" smooth="yes"></point>
      <point x="570" y="1281"></point>
      <point x="576" y="1286"></point>
      <point x="583" y="1286" type="curve" smooth="yes"></point>
      <point x="590" y="1286"></point>
      <point x="597" y="1281"></point>
      <point x="602" y="1271" type="curve" smooth="yes"></point>
      <point x="1184" y="40" type="line" smooth="yes"></point>
      <point x="1187" y="34"></point>
      <point x="1188" y="29"></point>
      <point x="1188" y="24" type="curve" smooth="yes"></point>
      <point x="1188" y="10"></point>
      <point x="1177" y="0"></point>
      <point x="1159" y="0" type="curve" smooth="yes"></point>
      <point x="928" y="0" type="line" smooth="yes"></point>
      <point x="898" y="0"></point>
      <point x="878" y="13"></point>
      <point x="866" y="40" type="curve" smooth="yes"></point>
      <point x="752" y="290" type="line"></point>
      <point x="432" y="290" type="line"></point>
      <point x="328" y="41" type="line" smooth="yes"></point>
      <point x="317" y="14"></point>
      <point x="297" y="0"></point>
      <point x="267" y="0" type="curve" smooth="yes"></point>
    </contour>
  </outline>
</glyph>
<glyph name="Aacute" format="1">
  <advance width="1188"></advance>
  <unicode hex="00C1"></unicode>
  <outline>
    <contour>
      <point x="485" y="474" type="line"></point>
      <point x="697" y="474" type="line"></point>
      <point x="586" y="737" type="line"></point>
    </contour>
    <contour>
      <point x="572" y="1377" type="curve" smooth="yes"></point>
      <point x="552" y="1377"></point>
      <point x="535" y="1394"></point>
      <point x="535" y="1418" type="curve" smooth="yes"></point>
      <point x="535" y="1427"></point>
      <point x="538" y="1438"></point>
      <point x="543" y="1449" type="curve" smooth="yes"></point>
      <point x="700" y="1780" type="line" smooth="yes"></point>
      <point x="734" y="1852"></point>
      <point x="783" y="1881"></point>
      <point x="825" y="1881" type="curve" smooth="yes"></point>
      <point x="876" y="1881"></point>
      <point x="919" y="1839"></point>
      <point x="919" y="1782" type="curve" smooth="yes"></point>
      <point x="919" y="1750"></point>
      <point x="905" y="1713"></point>
      <point x="871" y="1676" type="curve" smooth="yes"></point>
      <point x="612" y="1398" type="line" smooth="yes"></point>
      <point x="599" y="1384"></point>
      <point x="585" y="1377"></point>
    </contour>
    <contour>
      <point x="30" y="0" type="line" smooth="yes"></point>
      <point x="11" y="0"></point>
      <point x="0" y="10"></point>
      <point x="0" y="24" type="curve" smooth="yes"></point>
      <point x="0" y="29"></point>
      <point x="1" y="34"></point>
      <point x="4" y="40" type="curve" smooth="yes"></point>
      <point x="565" y="1271" type="line" smooth="yes"></point>
      <point x="570" y="1281"></point>
      <point x="576" y="1286"></point>
      <point x="583" y="1286" type="curve" smooth="yes"></point>
      <point x="590" y="1286"></point>
      <point x="597" y="1281"></point>
      <point x="602" y="1271" type="curve" smooth="yes"></point>
      <point x="1184" y="40" type="line" smooth="yes"></point>
      <point x="1187" y="34"></point>
      <point x="1188" y="29"></point>
      <point x="1188" y="24" type="curve" smooth="yes"></point>
      <point x="1188" y="10"></point>
      <point x="1177" y="0"></point>
      <point x="1159" y="0" type="curve" smooth="yes"></point>
      <point x="928" y="0" type="line" smooth="yes"></point>
      <point x="898" y="0"></point>
      <point x="878" y="13"></point>
      <point x="866" y="40" type="curve" smooth="yes"></point>
      <point x="752" y="290" type="line"></point>
      <point x="432" y="290" type="line"></point>
      <point x="328" y="41" type="line" smooth="yes"></point>
      <point x="317" y="14"></point>
      <point x="297" y="0"></point>
      <point x="267" y="0" type="curve" smooth="yes"></point>
    </contour>
  </outline>
</glyph>
<glyph name="Ccedilla" format="1">
  <advance width="1096"></advance>
  <unicode hex="00C7"></unicode>
  <outline>
    <contour>
      <point x="672" y="-365" type="line"></point>
      <point x="562" y="-352"></point>
      <point x="484" y="-283"></point>
      <point x="484" y="-214" type="curve" smooth="yes"></point>
      <point x="484" y="-163"></point>
      <point x="526" y="-111"></point>
      <point x="630" y="-81" type="curve"></point>
      <point x="630" y="-54" type="line" smooth="yes"></point>
      <point x="630" y="-46"></point>
      <point x="631" y="-38"></point>
      <point x="634" y="-32" type="curve"></point>
      <point x="267" y="-15"></point>
      <point x="0" y="233"></point>
      <point x="0" y="622" type="curve" smooth="yes"></point>
      <point x="0" y="1026"></point>
      <point x="287" y="1275"></point>
      <point x="675" y="1275" type="curve" smooth="yes"></point>
      <point x="845" y="1275"></point>
      <point x="997" y="1218"></point>
      <point x="1062" y="1190" type="curve" smooth="yes"></point>
      <point x="1084" y="1180"></point>
      <point x="1096" y="1162"></point>
      <point x="1096" y="1138" type="curve" smooth="yes"></point>
      <point x="1096" y="932" type="line" smooth="yes"></point>
      <point x="1096" y="908"></point>
      <point x="1079" y="899"></point>
      <point x="1059" y="912" type="curve" smooth="yes"></point>
      <point x="955" y="976"></point>
      <point x="828" y="1014"></point>
      <point x="706" y="1014" type="curve" smooth="yes"></point>
      <point x="497" y="1014"></point>
      <point x="310" y="906"></point>
      <point x="310" y="622" type="curve" smooth="yes"></point>
      <point x="310" y="339"></point>
      <point x="497" y="228"></point>
      <point x="706" y="228" type="curve" smooth="yes"></point>
      <point x="828" y="228"></point>
      <point x="955" y="266"></point>
      <point x="1059" y="330" type="curve" smooth="yes"></point>
      <point x="1079" y="343"></point>
      <point x="1096" y="334"></point>
      <point x="1096" y="310" type="curve" smooth="yes"></point>
      <point x="1096" y="104" type="line" smooth="yes"></point>
      <point x="1096" y="80"></point>
      <point x="1084" y="62"></point>
      <point x="1062" y="52" type="curve" smooth="yes"></point>
      <point x="1002" y="26"></point>
      <point x="869" y="-24"></point>
      <point x="715" y="-32" type="curve"></point>
      <point x="718" y="-38"></point>
      <point x="719" y="-46"></point>
      <point x="719" y="-54" type="curve" smooth="yes"></point>
      <point x="719" y="-82" type="line" smooth="yes"></point>
      <point x="719" y="-115"></point>
      <point x="708" y="-130"></point>
      <point x="676" y="-140" type="curve" smooth="yes"></point>
      <point x="637" y="-152"></point>
      <point x="621" y="-170"></point>
      <point x="621" y="-191" type="curve" smooth="yes"></point>
      <point x="621" y="-224"></point>
      <point x="661" y="-262"></point>
      <point x="713" y="-286" type="curve" smooth="yes"></point>
      <point x="736" y="-297"></point>
      <point x="742" y="-312"></point>
      <point x="729" y="-334" type="curve" smooth="yes"></point>
      <point x="718" y="-353"></point>
      <point x="701" y="-365"></point>
      <point x="679" y="-365" type="curve" smooth="yes"></point>
    </contour>
  </outline>
</glyph>
<glyph name="Egrave" format="1">
  <advance width="733"></advance>
  <unicode hex="00C8"></unicode>
  <outline>
    <contour>
      <point x="389" y="1378" type="curve" smooth="yes"></point>
      <point x="376" y="1378"></point>
      <point x="362" y="1384"></point>
      <point x="349" y="1398" type="curve" smooth="yes"></point>
      <point x="90" y="1676" type="line" smooth="yes"></point>
      <point x="56" y="1713"></point>
      <point x="41" y="1750"></point>
      <point x="41" y="1782" type="curve" smooth="yes"></point>
      <point x="41" y="1839"></point>
      <point x="85" y="1881"></point>
      <point x="136" y="1881" type="curve" smooth="yes"></point>
      <point x="178" y="1881"></point>
      <point x="227" y="1852"></point>
      <point x="261" y="1780" type="curve" smooth="yes"></point>
      <point x="418" y="1449" type="line" smooth="yes"></point>
      <point x="423" y="1438"></point>
      <point x="425" y="1427"></point>
      <point x="425" y="1418" type="curve" smooth="yes"></point>
      <point x="425" y="1394"></point>
      <point x="409" y="1378"></point>
    </contour>
    <contour>
      <point x="44" y="0" type="line" smooth="yes"></point>
      <point x="16" y="0"></point>
      <point x="0" y="16"></point>
      <point x="0" y="44" type="curve" smooth="yes"></point>
      <point x="0" y="1197" type="line" smooth="yes"></point>
      <point x="0" y="1225"></point>
      <point x="16" y="1241"></point>
      <point x="44" y="1241" type="curve" smooth="yes"></point>
      <point x="679" y="1241" type="line" smooth="yes"></point>
      <point x="707" y="1241"></point>
      <point x="723" y="1225"></point>
      <point x="723" y="1197" type="curve" smooth="yes"></point>
      <point x="723" y="1029" type="line" smooth="yes"></point>
      <point x="723" y="1001"></point>
      <point x="707" y="985"></point>
      <point x="679" y="985" type="curve" smooth="yes"></point>
      <point x="294" y="985" type="line"></point>
      <point x="294" y="764" type="line"></point>
      <point x="613" y="764" type="line" smooth="yes"></point>
      <point x="641" y="764"></point>
      <point x="657" y="748"></point>
      <point x="657" y="720" type="curve" smooth="yes"></point>
      <point x="657" y="556" type="line" smooth="yes"></point>
      <point x="657" y="528"></point>
      <point x="641" y="512"></point>
      <point x="613" y="512" type="curve" smooth="yes"></point>
      <point x="292" y="512" type="line"></point>
      <point x="292" y="266" type="line"></point>
      <point x="689" y="266" type="line" smooth="yes"></point>
      <point x="717" y="266"></point>
      <point x="733" y="250"></point>
      <point x="733" y="222" type="curve" smooth="yes"></point>
      <point x="733" y="44" type="line" smooth="yes"></point>
      <point x="733" y="16"></point>
      <point x="717" y="0"></point>
      <point x="689" y="0" type="curve" smooth="yes"></point>
    </contour>
  </outline>
</glyph>
<glyph name="Eacute" format="1">
  <advance width="733"></advance>
  <unicode hex="00C9"></unicode>
  <outline>
    <contour>
      <point x="367" y="1377" type="curve" smooth="yes"></point>
      <point x="347" y="1377"></point>
      <point x="330" y="1394"></point>
      <point x="330" y="1418" type="curve" smooth="yes"></point>
      <point x="330" y="1427"></point>
      <point x="333" y="1438"></point>
      <point x="338" y="1449" type="curve" smooth="yes"></point>
      <point x="495" y="1780" type="line" smooth="yes"></point>
      <point x="529" y="1852"></point>
      <point x="578" y="1881"></point>
      <point x="620" y="1881" type="curve" smooth="yes"></point>
      <point x="671" y="1881"></point>
      <point x="714" y="1839"></point>
      <point x="714" y="1782" type="curve" smooth="yes"></point>
      <point x="714" y="1750"></point>
      <point x="700" y="1713"></point>
      <point x="666" y="1676" type="curve" smooth="yes"></point>
      <point x="407" y="1398" type="line" smooth="yes"></point>
      <point x="394" y="1384"></point>
      <point x="380" y="1377"></point>
    </contour>
    <contour>
      <point x="44" y="0" type="line" smooth="yes"></point>
      <point x="16" y="0"></point>
      <point x="0" y="16"></point>
      <point x="0" y="44" type="curve" smooth="yes"></point>
      <point x="0" y="1197" type="line" smooth="yes"></point>
      <point x="0" y="1225"></point>
      <point x="16" y="1241"></point>
      <point x="44" y="1241" type="curve" smooth="yes"></point>
      <point x="679" y="1241" type="line" smooth="yes"></point>
      <point x="707" y="1241"></point>
      <point x="723" y="1225"></point>
      <point x="723" y="1197" type="curve" smooth="yes"></point>
      <point x="723" y="1029" type="line" smooth="yes"></point>
      <point x="723" y="1001"></point>
      <point x="707" y="985"></point>
      <point x="679" y="985" type="curve" smooth="yes"></point>
      <point x="294" y="985" type="line"></point>
      <point x="294" y="764" type="line"></point>
      <point x="613" y="764" type="line" smooth="yes"></point>
      <point x="641" y="764"></point>
      <point x="657" y="748"></point>
      <point x="657" y="720" type="curve" smooth="yes"></point>
      <point x="657" y="556" type="line" smooth="yes"></point>
      <point x="657" y="528"></point>
      <point x="641" y="512"></point>
      <point x="613" y="512" type="curve" smooth="yes"></point>
      <point x="292" y="512" type="line"></point>
      <point x="292" y="266" type="line"></point>
      <point x="689" y="266" type="line" smooth="yes"></point>
      <point x="717" y="266"></point>
      <point x="733" y="250"></point>
      <point x="733" y="222" type="curve" smooth="yes"></point>
      <point x="733" y="44" type="line" smooth="yes"></point>
      <point x="733" y="16"></point>
      <point x="717" y="0"></point>
      <point x="689" y="0" type="curve" smooth="yes"></point>
    </contour>
  </outline>
</glyph>
<glyph name="Oslash" format="1">
  <advance width="1377"></advance>
  <unicode hex="00D8"></unicode>
  <outline>
    <contour>
      <point x="236" y="-83" type="curve" smooth="yes"></point>
      <point x="202" y="-62" type="line" smooth="yes"></point>
      <point x="187" y="-53"></point>
      <point x="180" y="-41"></point>
      <point x="180" y="-28" type="curve" smooth="yes"></point>
      <point x="180" y="-20"></point>
      <point x="183" y="-11"></point>
      <point x="189" y="-2" type="curve" smooth="yes"></point>
      <point x="259" y="103" type="line"></point>
      <point x="115" y="211"></point>
      <point x="16" y="383"></point>
      <point x="16" y="621" type="curve" smooth="yes"></point>
      <point x="16" y="1058"></point>
      <point x="350" y="1276"></point>
      <point x="682" y="1276" type="curve" smooth="yes"></point>
      <point x="790" y="1276"></point>
      <point x="897" y="1253"></point>
      <point x="994" y="1207" type="curve"></point>
      <point x="1066" y="1314" type="line" smooth="yes"></point>
      <point x="1076" y="1329"></point>
      <point x="1087" y="1336"></point>
      <point x="1101" y="1336" type="curve" smooth="yes"></point>
      <point x="1109" y="1336"></point>
      <point x="1118" y="1334"></point>
      <point x="1127" y="1328" type="curve" smooth="yes"></point>
      <point x="1161" y="1307" type="line" smooth="yes"></point>
      <point x="1176" y="1298"></point>
      <point x="1183" y="1286"></point>
      <point x="1183" y="1273" type="curve" smooth="yes"></point>
      <point x="1183" y="1265"></point>
      <point x="1180" y="1256"></point>
      <point x="1174" y="1247" type="curve" smooth="yes"></point>
      <point x="1104" y="1142" type="line"></point>
      <point x="1249" y="1034"></point>
      <point x="1348" y="861"></point>
      <point x="1348" y="624" type="curve" smooth="yes"></point>
      <point x="1348" y="185"></point>
      <point x="1015" y="-33"></point>
      <point x="683" y="-33" type="curve" smooth="yes"></point>
      <point x="574" y="-33"></point>
      <point x="465" y="-10"></point>
      <point x="368" y="37" type="curve"></point>
      <point x="297" y="-69" type="line" smooth="yes"></point>
      <point x="287" y="-84"></point>
      <point x="276" y="-91"></point>
      <point x="262" y="-91" type="curve" smooth="yes"></point>
      <point x="254" y="-91"></point>
      <point x="245" y="-89"></point>
    </contour>
    <contour>
      <point x="945" y="904" type="curve"></point>
      <point x="518" y="262" type="line"></point>
      <point x="568" y="237"></point>
      <point x="624" y="225"></point>
      <point x="682" y="225" type="curve" smooth="yes"></point>
      <point x="870" y="225"></point>
      <point x="1044" y="353"></point>
      <point x="1044" y="619" type="curve" smooth="yes"></point>
      <point x="1044" y="741"></point>
      <point x="1005" y="837"></point>
    </contour>
    <contour>
      <point x="844" y="981" type="line"></point>
      <point x="795" y="1006"></point>
      <point x="739" y="1018"></point>
      <point x="683" y="1018" type="curve" smooth="yes"></point>
      <point x="495" y="1018"></point>
      <point x="322" y="879"></point>
      <point x="322" y="620" type="curve" smooth="yes"></point>
      <point x="322" y="497"></point>
      <point x="358" y="403"></point>
      <point x="416" y="338" type="curve"></point>
    </contour>
  </outline>
</glyph>
<glyph name="Thorn" format="1">
  <advance width="838"></advance>
  <unicode hex="00DE"></unicode>
  <outline>
    <contour>
      <point x="300" y="443" type="line"></point>
      <point x="336" y="443" type="line" smooth="yes"></point>
      <point x="476" y="443"></point>
      <point x="554" y="532"></point>
      <point x="554" y="647" type="curve" smooth="yes"></point>
      <point x="554" y="750"></point>
      <point x="491" y="838"></point>
      <point x="320" y="838" type="curve" smooth="yes"></point>
      <point x="300" y="838" type="line"></point>
    </contour>
    <contour>
      <point x="44" y="0" type="line" smooth="yes"></point>
      <point x="16" y="0"></point>
      <point x="0" y="16"></point>
      <point x="0" y="44" type="curve" smooth="yes"></point>
      <point x="0" y="1197" type="line" smooth="yes"></point>
      <point x="0" y="1225"></point>
      <point x="16" y="1241"></point>
      <point x="44" y="1241" type="curve" smooth="yes"></point>
      <point x="256" y="1241" type="line" smooth="yes"></point>
      <point x="284" y="1241"></point>
      <point x="300" y="1225"></point>
      <point x="300" y="1197" type="curve" smooth="yes"></point>
      <point x="300" y="1032" type="line"></point>
      <point x="366" y="1032" type="line" smooth="yes"></point>
      <point x="641" y="1032"></point>
      <point x="838" y="912"></point>
      <point x="838" y="652" type="curve" smooth="yes"></point>
      <point x="838" y="292"></point>
      <point x="475" y="285"></point>
      <point x="319" y="285" type="curve" smooth="yes"></point>
      <point x="302" y="285" type="line"></point>
      <point x="302" y="44" type="line" smooth="yes"></point>
      <point x="302" y="16"></point>
      <point x="286" y="0"></point>
      <point x="258" y="0" type="curve" smooth="yes"></point>
    </contour>
  </outline>
</glyph>
<glyph name="ccedilla" format="1">
  <advance width="778"></advance>
  <unicode hex="00E7"></unicode>
  <outline>
    <contour>
      <point x="527" y="-354" type="line"></point>
      <point x="412" y="-342"></point>
      <point x="317" y="-271"></point>
      <point x="317" y="-201" type="curve" smooth="yes"></point>
      <point x="317" y="-150"></point>
      <point x="349" y="-100"></point>
      <point x="453" y="-70" type="curve"></point>
      <point x="453" y="-42" type="line" smooth="yes"></point>
      <point x="453" y="-34"></point>
      <point x="454" y="-29"></point>
      <point x="456" y="-23" type="curve"></point>
      <point x="183" y="-5"></point>
      <point x="0" y="183"></point>
      <point x="0" y="440" type="curve" smooth="yes"></point>
      <point x="0" y="717"></point>
      <point x="214" y="900"></point>
      <point x="495" y="900" type="curve" smooth="yes"></point>
      <point x="625" y="900"></point>
      <point x="701" y="871"></point>
      <point x="741" y="849" type="curve" smooth="yes"></point>
      <point x="765" y="836"></point>
      <point x="778" y="813"></point>
      <point x="778" y="786" type="curve" smooth="yes"></point>
      <point x="778" y="629" type="line" smooth="yes"></point>
      <point x="778" y="606"></point>
      <point x="762" y="598"></point>
      <point x="744" y="612" type="curve" smooth="yes"></point>
      <point x="702" y="643"></point>
      <point x="625" y="686"></point>
      <point x="510" y="686" type="curve" smooth="yes"></point>
      <point x="361" y="686"></point>
      <point x="275" y="578"></point>
      <point x="275" y="441" type="curve" smooth="yes"></point>
      <point x="275" y="304"></point>
      <point x="364" y="190"></point>
      <point x="522" y="190" type="curve" smooth="yes"></point>
      <point x="628" y="190"></point>
      <point x="683" y="221"></point>
      <point x="740" y="253" type="curve" smooth="yes"></point>
      <point x="761" y="264"></point>
      <point x="778" y="254"></point>
      <point x="778" y="230" type="curve" smooth="yes"></point>
      <point x="778" y="96" type="line" smooth="yes"></point>
      <point x="778" y="66"></point>
      <point x="766" y="47"></point>
      <point x="740" y="33" type="curve" smooth="yes"></point>
      <point x="700" y="11"></point>
      <point x="632" y="-17"></point>
      <point x="539" y="-23" type="curve"></point>
      <point x="541" y="-29"></point>
      <point x="542" y="-35"></point>
      <point x="542" y="-42" type="curve" smooth="yes"></point>
      <point x="542" y="-70" type="line" smooth="yes"></point>
      <point x="542" y="-103"></point>
      <point x="531" y="-119"></point>
      <point x="499" y="-129" type="curve" smooth="yes"></point>
      <point x="461" y="-141"></point>
      <point x="445" y="-160"></point>
      <point x="445" y="-181" type="curve" smooth="yes"></point>
      <point x="445" y="-217"></point>
      <point x="488" y="-256"></point>
      <point x="542" y="-275" type="curve" smooth="yes"></point>
      <point x="566" y="-283"></point>
      <point x="575" y="-297"></point>
      <point x="570" y="-322" type="curve" smooth="yes"></point>
      <point x="566" y="-342"></point>
      <point x="552" y="-354"></point>
      <point x="533" y="-354" type="curve" smooth="yes"></point>
    </contour>
  </outline>
</glyph>
